M48
; DRILL file {KiCad 8.0.0-rc1} date 2025-07-19T19:17:22+0200
; FORMAT={-:-/ absolute / inch / decimal}
; #@! TF.CreationDate,2025-07-19T19:17:22+02:00
; #@! TF.GenerationSoftware,Kicad,Pcbnew,8.0.0-rc1
; #@! TF.FileFunction,Plated,1,2,PTH
FMAT,2
INCH
; #@! TA.AperFunction,Plated,PTH,ViaDrill
T1C0.0118
; #@! TA.AperFunction,Plated,PTH,ComponentDrill
T2C0.0394
; #@! TA.AperFunction,Plated,PTH,ComponentDrill
T3C0.0630
%
G90
G05
T1
X4.4094Y-5.3445
X5.0551Y-5.1673
X6.189Y-5.3465
X6.9587Y-5.0531
T2
X4.0846Y-5.4528
X4.4193Y-5.0335
X4.4193Y-5.2303
X4.5276Y-5.5906
X4.5276Y-5.6906
X4.6276Y-5.5906
X4.6276Y-5.6906
X4.7276Y-5.5906
X4.7276Y-5.6906
X4.8276Y-5.5906
X4.8276Y-5.6906
X4.9276Y-5.5906
X4.9276Y-5.6906
X4.9291Y-5.0328
X4.9291Y-5.2296
X5.4252Y-5.0315
X5.4252Y-5.2283
X5.4252Y-5.5906
X5.4252Y-5.6906
X5.5252Y-5.5906
X5.5252Y-5.6906
X5.6252Y-5.5906
X5.6252Y-5.6906
X5.7252Y-5.5906
X5.7252Y-5.6906
X5.8252Y-5.5906
X5.8252Y-5.6906
X5.9134Y-5.0315
X5.9134Y-5.2283
X6.3228Y-5.5906
X6.3228Y-5.6906
X6.4228Y-5.5906
X6.4228Y-5.6906
X6.4749Y-4.063
X6.4749Y-4.163
X6.4749Y-4.263
X6.4749Y-4.363
X6.4749Y-4.463
X6.4749Y-4.563
X6.4749Y-4.663
X6.4749Y-4.763
X6.4749Y-4.863
X6.5228Y-5.5906
X6.5228Y-5.6906
X6.5749Y-4.863
X6.6228Y-5.5906
X6.6228Y-5.6906
X6.6749Y-4.863
X6.7228Y-5.5906
X6.7228Y-5.6906
X6.7749Y-4.863
X6.8749Y-4.863
X6.9749Y-4.863
X7.0749Y-4.063
X7.0749Y-4.163
X7.0749Y-4.263
X7.0749Y-4.363
X7.0749Y-4.463
X7.0749Y-4.563
X7.0749Y-4.663
X7.0749Y-4.763
X7.0749Y-4.863
X7.2126Y-4.0628
X7.2126Y-4.1628
X7.2126Y-4.2628
X7.2126Y-4.3628
X7.2126Y-4.4628
X7.2126Y-4.5628
X7.2126Y-4.6628
X7.2126Y-4.7628
X7.2283Y-5.5906
X7.2283Y-5.6906
X7.3283Y-5.5906
X7.3283Y-5.6906
X7.4283Y-5.5906
X7.4283Y-5.6906
X7.5283Y-5.5906
X7.5283Y-5.6906
X7.5458Y-5.1909
X7.6283Y-5.5906
X7.6283Y-5.6906
X7.6458Y-5.1909
X7.8976Y-5.1969
X7.8976Y-5.2969
T3
X4.4173Y-4.2189
X4.4173Y-4.8189
X4.9291Y-4.2189
X4.9291Y-4.8189
X5.4252Y-4.2189
X5.4252Y-4.8189
X5.9134Y-4.2189
X5.9134Y-4.8189
T2
G00X7.4606Y-4.2461
M15
G01X7.4606Y-4.3248
M16
G05
G00X7.685Y-4.1673
M15
G01X7.6063Y-4.1673
M16
G05
G00X7.685Y-4.4035
M15
G01X7.6063Y-4.4035
M16
G05
M30
