G04 #@! TF.GenerationSoftware,KiCad,Pcbnew,8.0.0-rc1*
G04 #@! TF.CreationDate,2025-07-19T19:17:19+02:00*
G04 #@! TF.ProjectId,Pneumatic control unit system,506e6575-6d61-4746-9963-20636f6e7472,rev?*
G04 #@! TF.SameCoordinates,Original*
G04 #@! TF.FileFunction,Soldermask,Bot*
G04 #@! TF.FilePolarity,Negative*
%FSLAX46Y46*%
G04 Gerber Fmt 4.6, Leading zero omitted, Abs format (unit mm)*
G04 Created by KiCad (PCBNEW 8.0.0-rc1) date 2025-07-19 19:17:19*
%MOMM*%
%LPD*%
G01*
G04 APERTURE LIST*
G04 Aperture macros list*
%AMRoundRect*
0 Rectangle with rounded corners*
0 $1 Rounding radius*
0 $2 $3 $4 $5 $6 $7 $8 $9 X,Y pos of 4 corners*
0 Add a 4 corners polygon primitive as box body*
4,1,4,$2,$3,$4,$5,$6,$7,$8,$9,$2,$3,0*
0 Add four circle primitives for the rounded corners*
1,1,$1+$1,$2,$3*
1,1,$1+$1,$4,$5*
1,1,$1+$1,$6,$7*
1,1,$1+$1,$8,$9*
0 Add four rect primitives between the rounded corners*
20,1,$1+$1,$2,$3,$4,$5,0*
20,1,$1+$1,$4,$5,$6,$7,0*
20,1,$1+$1,$6,$7,$8,$9,0*
20,1,$1+$1,$8,$9,$2,$3,0*%
G04 Aperture macros list end*
%ADD10C,3.200000*%
%ADD11RoundRect,0.250000X0.600000X-0.600000X0.600000X0.600000X-0.600000X0.600000X-0.600000X-0.600000X0*%
%ADD12C,1.700000*%
%ADD13C,2.000000*%
%ADD14R,2.000000X2.000000*%
%ADD15R,3.200000X3.200000*%
%ADD16O,3.200000X3.200000*%
%ADD17R,1.700000X1.700000*%
%ADD18O,1.700000X1.700000*%
%ADD19R,1.600000X1.600000*%
%ADD20O,1.600000X1.600000*%
%ADD21R,3.500000X3.500000*%
%ADD22RoundRect,0.750000X-1.000000X0.750000X-1.000000X-0.750000X1.000000X-0.750000X1.000000X0.750000X0*%
%ADD23RoundRect,0.875000X-0.875000X0.875000X-0.875000X-0.875000X0.875000X-0.875000X0.875000X0.875000X0*%
%ADD24O,2.000000X3.000000*%
%ADD25RoundRect,0.250000X0.450000X-0.350000X0.450000X0.350000X-0.450000X0.350000X-0.450000X-0.350000X0*%
%ADD26RoundRect,0.237500X-0.300000X-0.237500X0.300000X-0.237500X0.300000X0.237500X-0.300000X0.237500X0*%
G04 APERTURE END LIST*
D10*
X205600000Y-104750000D03*
D11*
X183600000Y-144540000D03*
D12*
X183600000Y-142000000D03*
X186140000Y-144540000D03*
X186140000Y-142000000D03*
X188680000Y-144540000D03*
X188680000Y-142000000D03*
X191220000Y-144540000D03*
X191220000Y-142000000D03*
X193760000Y-144540000D03*
X193760000Y-142000000D03*
D13*
X103750000Y-138500000D03*
D11*
X160600000Y-144540000D03*
D12*
X160600000Y-142000000D03*
X163140000Y-144540000D03*
X163140000Y-142000000D03*
X165680000Y-144540000D03*
X165680000Y-142000000D03*
X168220000Y-144540000D03*
X168220000Y-142000000D03*
X170760000Y-144540000D03*
X170760000Y-142000000D03*
D14*
X137800000Y-127800000D03*
D13*
X137800000Y-132800000D03*
D15*
X112200000Y-122400000D03*
D16*
X112200000Y-107160000D03*
D11*
X115000000Y-144540000D03*
D12*
X115000000Y-142000000D03*
X117540000Y-144540000D03*
X117540000Y-142000000D03*
X120080000Y-144540000D03*
X120080000Y-142000000D03*
X122620000Y-144540000D03*
X122620000Y-142000000D03*
X125160000Y-144540000D03*
X125160000Y-142000000D03*
D14*
X150200000Y-127800000D03*
D13*
X150200000Y-132800000D03*
D17*
X183200000Y-103195000D03*
D18*
X183200000Y-105735000D03*
X183200000Y-108275000D03*
X183200000Y-110815000D03*
X183200000Y-113355000D03*
X183200000Y-115895000D03*
X183200000Y-118435000D03*
X183200000Y-120975000D03*
D10*
X205600000Y-146000000D03*
D11*
X137800000Y-144540000D03*
D12*
X137800000Y-142000000D03*
X140340000Y-144540000D03*
X140340000Y-142000000D03*
X142880000Y-144540000D03*
X142880000Y-142000000D03*
X145420000Y-144540000D03*
X145420000Y-142000000D03*
X147960000Y-144540000D03*
X147960000Y-142000000D03*
D15*
X150200000Y-122400000D03*
D16*
X150200000Y-107160000D03*
D10*
X103500000Y-146000000D03*
D15*
X137800000Y-122400000D03*
D16*
X137800000Y-107160000D03*
D19*
X179703200Y-103200000D03*
D20*
X179703200Y-105740000D03*
X179703200Y-108280000D03*
X179703200Y-110820000D03*
X179703200Y-113360000D03*
X179703200Y-115900000D03*
X179703200Y-118440000D03*
X179703200Y-120980000D03*
X179703200Y-123520000D03*
X177163200Y-123520000D03*
X174623200Y-123520000D03*
X172083200Y-123520000D03*
X169543200Y-123520000D03*
X167003200Y-123520000D03*
X164463200Y-123520000D03*
X164463200Y-120980000D03*
X164463200Y-118440000D03*
X164463200Y-115900000D03*
X164463200Y-113360000D03*
X164463200Y-110820000D03*
X164463200Y-108280000D03*
X164463200Y-105740000D03*
X164463200Y-103200000D03*
D17*
X200600000Y-132000000D03*
D18*
X200600000Y-134540000D03*
D21*
X194200000Y-111850000D03*
D22*
X194200000Y-105850000D03*
D23*
X189500000Y-108850000D03*
D15*
X125200000Y-122400000D03*
D16*
X125200000Y-107160000D03*
D14*
X112250000Y-127850000D03*
D13*
X112250000Y-132850000D03*
D10*
X103500000Y-104750000D03*
D14*
X125200000Y-127832323D03*
D13*
X125200000Y-132832323D03*
D24*
X194203200Y-131850000D03*
X191663200Y-131850000D03*
D25*
X200897060Y-141250000D03*
X200897060Y-139250000D03*
D26*
X120275000Y-137250000D03*
X122000000Y-137250000D03*
X166075000Y-137250000D03*
X167800000Y-137250000D03*
X143275000Y-137250000D03*
X145000000Y-137250000D03*
X189075000Y-137250000D03*
X190800000Y-137250000D03*
X167045800Y-108245000D03*
X168770800Y-108245000D03*
M02*
