G04 #@! TF.GenerationSoftware,KiCad,Pcbnew,8.0.0-rc1*
G04 #@! TF.CreationDate,2025-07-19T19:19:54+02:00*
G04 #@! TF.ProjectId,Pneumatic control unit system,506e6575-6d61-4746-9963-20636f6e7472,rev?*
G04 #@! TF.SameCoordinates,Original*
G04 #@! TF.FileFunction,Copper,L2,Bot*
G04 #@! TF.FilePolarity,Positive*
%FSLAX46Y46*%
G04 Gerber Fmt 4.6, Leading zero omitted, Abs format (unit mm)*
G04 Created by KiCad (PCBNEW 8.0.0-rc1) date 2025-07-19 19:19:54*
%MOMM*%
%LPD*%
G01*
G04 APERTURE LIST*
G04 Aperture macros list*
%AMRoundRect*
0 Rectangle with rounded corners*
0 $1 Rounding radius*
0 $2 $3 $4 $5 $6 $7 $8 $9 X,Y pos of 4 corners*
0 Add a 4 corners polygon primitive as box body*
4,1,4,$2,$3,$4,$5,$6,$7,$8,$9,$2,$3,0*
0 Add four circle primitives for the rounded corners*
1,1,$1+$1,$2,$3*
1,1,$1+$1,$4,$5*
1,1,$1+$1,$6,$7*
1,1,$1+$1,$8,$9*
0 Add four rect primitives between the rounded corners*
20,1,$1+$1,$2,$3,$4,$5,0*
20,1,$1+$1,$4,$5,$6,$7,0*
20,1,$1+$1,$6,$7,$8,$9,0*
20,1,$1+$1,$8,$9,$2,$3,0*%
G04 Aperture macros list end*
G04 #@! TA.AperFunction,ComponentPad*
%ADD10R,1.600000X1.600000*%
G04 #@! TD*
G04 #@! TA.AperFunction,ComponentPad*
%ADD11O,1.600000X1.600000*%
G04 #@! TD*
G04 #@! TA.AperFunction,ComponentPad*
%ADD12R,2.200000X2.200000*%
G04 #@! TD*
G04 #@! TA.AperFunction,ComponentPad*
%ADD13O,2.200000X2.200000*%
G04 #@! TD*
G04 #@! TA.AperFunction,ComponentPad*
%ADD14C,2.000000*%
G04 #@! TD*
G04 #@! TA.AperFunction,ComponentPad*
%ADD15RoundRect,0.250000X0.600000X-0.600000X0.600000X0.600000X-0.600000X0.600000X-0.600000X-0.600000X0*%
G04 #@! TD*
G04 #@! TA.AperFunction,ComponentPad*
%ADD16C,1.700000*%
G04 #@! TD*
G04 #@! TA.AperFunction,ComponentPad*
%ADD17C,2.200000*%
G04 #@! TD*
G04 #@! TA.AperFunction,ComponentPad*
%ADD18C,1.600000*%
G04 #@! TD*
G04 #@! TA.AperFunction,ViaPad*
%ADD19C,0.600000*%
G04 #@! TD*
G04 #@! TA.AperFunction,Conductor*
%ADD20C,0.500000*%
G04 #@! TD*
G04 #@! TA.AperFunction,Conductor*
%ADD21C,1.000000*%
G04 #@! TD*
G04 APERTURE END LIST*
D10*
X44250000Y-33250000D03*
D11*
X36630000Y-33250000D03*
D12*
X71250000Y-36750000D03*
D13*
X61090000Y-36750000D03*
D14*
X43750000Y-51500000D03*
X43750000Y-45000000D03*
X48250000Y-51500000D03*
X48250000Y-45000000D03*
X68500000Y-51500000D03*
X68500000Y-45000000D03*
X73000000Y-51500000D03*
X73000000Y-45000000D03*
X23700000Y-41200000D03*
D12*
X46000000Y-36750000D03*
D13*
X35840000Y-36750000D03*
D15*
X37840000Y-27750000D03*
D16*
X37840000Y-25210000D03*
X40380000Y-27750000D03*
X40380000Y-25210000D03*
X42920000Y-27750000D03*
X42920000Y-25210000D03*
X45460000Y-27750000D03*
X45460000Y-25210000D03*
X48000000Y-27750000D03*
X48000000Y-25210000D03*
D12*
X31600000Y-49646860D03*
D17*
X34140000Y-49646860D03*
D10*
X71200000Y-33300000D03*
D11*
X63580000Y-33300000D03*
D12*
X56300610Y-49646860D03*
D17*
X58840610Y-49646860D03*
D10*
X32000000Y-40250000D03*
D18*
X29500000Y-40250000D03*
D10*
X53000000Y-35250000D03*
D18*
X50500000Y-35250000D03*
D10*
X57932380Y-40950000D03*
D18*
X55432380Y-40950000D03*
D10*
X27250000Y-34100000D03*
D18*
X24750000Y-34100000D03*
D19*
X62000000Y-50250000D03*
X37250000Y-50000000D03*
D20*
X46750000Y-30000000D02*
X41250000Y-30000000D01*
X61800000Y-45000000D02*
X48250000Y-45000000D01*
X61800000Y-45000000D02*
X64600000Y-47800000D01*
X69300000Y-47800000D02*
X73000000Y-51500000D01*
X64350000Y-47800000D02*
X69200000Y-47800000D01*
X40380000Y-29130000D02*
X40380000Y-27750000D01*
X41250000Y-30000000D02*
X40380000Y-29130000D01*
X48250000Y-31500000D02*
X48250000Y-45000000D01*
X46750000Y-30000000D02*
X48250000Y-31500000D01*
D21*
X42920000Y-25210000D02*
X42920000Y-27750000D01*
X45460000Y-25210000D02*
X42920000Y-25210000D01*
D20*
X37840000Y-25210000D02*
X34040000Y-25210000D01*
X34650000Y-33250000D02*
X36630000Y-33250000D01*
X33000000Y-31600000D02*
X34650000Y-33250000D01*
X34040000Y-25210000D02*
X33000000Y-26250000D01*
X33000000Y-26250000D02*
X33000000Y-31600000D01*
G04 #@! TA.AperFunction,Conductor*
G36*
X42454075Y-27942993D02*
G01*
X42519901Y-28057007D01*
X42612993Y-28150099D01*
X42727007Y-28215925D01*
X42790590Y-28232962D01*
X42158625Y-28864925D01*
X42242421Y-28923600D01*
X42434393Y-29013118D01*
X42486832Y-29059290D01*
X42505984Y-29126484D01*
X42485768Y-29193365D01*
X42432603Y-29238700D01*
X42381988Y-29249500D01*
X41612230Y-29249500D01*
X41545191Y-29229815D01*
X41524549Y-29213181D01*
X41263313Y-28951945D01*
X41229828Y-28890622D01*
X41234812Y-28820930D01*
X41263313Y-28776583D01*
X41418495Y-28621401D01*
X41548732Y-28435403D01*
X41603307Y-28391780D01*
X41672805Y-28384586D01*
X41735160Y-28416109D01*
X41751880Y-28435405D01*
X41805073Y-28511373D01*
X42437037Y-27879409D01*
X42454075Y-27942993D01*
G37*
G04 #@! TD.AperFunction*
G04 #@! TA.AperFunction,Conductor*
G36*
X44034925Y-28511373D02*
G01*
X44088119Y-28435405D01*
X44142696Y-28391781D01*
X44212195Y-28384588D01*
X44274549Y-28416110D01*
X44291269Y-28435405D01*
X44421505Y-28621401D01*
X44588599Y-28788495D01*
X44631675Y-28818657D01*
X44782165Y-28924032D01*
X44782167Y-28924033D01*
X44782170Y-28924035D01*
X44973209Y-29013118D01*
X45025648Y-29059290D01*
X45044800Y-29126484D01*
X45024584Y-29193365D01*
X44971419Y-29238700D01*
X44920804Y-29249500D01*
X43458012Y-29249500D01*
X43390973Y-29229815D01*
X43345218Y-29177011D01*
X43335274Y-29107853D01*
X43364299Y-29044297D01*
X43405607Y-29013118D01*
X43597578Y-28923600D01*
X43597582Y-28923598D01*
X43681373Y-28864926D01*
X43681373Y-28864925D01*
X43049409Y-28232962D01*
X43112993Y-28215925D01*
X43227007Y-28150099D01*
X43320099Y-28057007D01*
X43385925Y-27942993D01*
X43402962Y-27879410D01*
X44034925Y-28511373D01*
G37*
G04 #@! TD.AperFunction*
G04 #@! TA.AperFunction,Conductor*
G36*
X42454075Y-25402993D02*
G01*
X42519901Y-25517007D01*
X42612993Y-25610099D01*
X42727007Y-25675925D01*
X42790590Y-25692962D01*
X42158625Y-26324925D01*
X42235031Y-26378425D01*
X42278655Y-26433002D01*
X42285848Y-26502501D01*
X42254326Y-26564855D01*
X42235029Y-26581576D01*
X42158625Y-26635072D01*
X42790590Y-27267037D01*
X42727007Y-27284075D01*
X42612993Y-27349901D01*
X42519901Y-27442993D01*
X42454075Y-27557007D01*
X42437037Y-27620590D01*
X41805073Y-26988626D01*
X41751881Y-27064594D01*
X41697304Y-27108219D01*
X41627806Y-27115413D01*
X41565451Y-27083891D01*
X41548730Y-27064594D01*
X41418494Y-26878597D01*
X41251402Y-26711506D01*
X41251396Y-26711501D01*
X41065842Y-26581575D01*
X41022217Y-26526998D01*
X41015023Y-26457500D01*
X41046546Y-26395145D01*
X41065842Y-26378425D01*
X41193165Y-26289272D01*
X41251401Y-26248495D01*
X41418495Y-26081401D01*
X41548732Y-25895403D01*
X41603307Y-25851780D01*
X41672805Y-25844586D01*
X41735160Y-25876109D01*
X41751880Y-25895405D01*
X41805073Y-25971373D01*
X42437037Y-25339409D01*
X42454075Y-25402993D01*
G37*
G04 #@! TD.AperFunction*
G04 #@! TA.AperFunction,Conductor*
G36*
X44994075Y-25402993D02*
G01*
X45059901Y-25517007D01*
X45152993Y-25610099D01*
X45267007Y-25675925D01*
X45330590Y-25692962D01*
X44698625Y-26324925D01*
X44774594Y-26378119D01*
X44818219Y-26432696D01*
X44825413Y-26502194D01*
X44793890Y-26564549D01*
X44774595Y-26581269D01*
X44588594Y-26711508D01*
X44421505Y-26878597D01*
X44291269Y-27064595D01*
X44236692Y-27108220D01*
X44167194Y-27115414D01*
X44104839Y-27083891D01*
X44088119Y-27064595D01*
X44034925Y-26988626D01*
X44034925Y-26988625D01*
X43402962Y-27620589D01*
X43385925Y-27557007D01*
X43320099Y-27442993D01*
X43227007Y-27349901D01*
X43112993Y-27284075D01*
X43049410Y-27267037D01*
X43681373Y-26635073D01*
X43604969Y-26581576D01*
X43561344Y-26526999D01*
X43554150Y-26457501D01*
X43585672Y-26395146D01*
X43604968Y-26378425D01*
X43681373Y-26324925D01*
X43049409Y-25692962D01*
X43112993Y-25675925D01*
X43227007Y-25610099D01*
X43320099Y-25517007D01*
X43385925Y-25402993D01*
X43402962Y-25339410D01*
X44034925Y-25971373D01*
X44088425Y-25894968D01*
X44143002Y-25851344D01*
X44212501Y-25844151D01*
X44274855Y-25875673D01*
X44291576Y-25894969D01*
X44345073Y-25971372D01*
X44977037Y-25339409D01*
X44994075Y-25402993D01*
G37*
G04 #@! TD.AperFunction*
G04 #@! TA.AperFunction,Conductor*
G36*
X46574925Y-25971373D02*
G01*
X46628119Y-25895405D01*
X46682696Y-25851781D01*
X46752195Y-25844588D01*
X46814549Y-25876110D01*
X46831269Y-25895405D01*
X46961505Y-26081401D01*
X46961506Y-26081402D01*
X47128597Y-26248493D01*
X47128603Y-26248498D01*
X47314158Y-26378425D01*
X47357783Y-26433002D01*
X47364977Y-26502500D01*
X47333454Y-26564855D01*
X47314158Y-26581575D01*
X47128597Y-26711505D01*
X46961505Y-26878597D01*
X46831575Y-27064158D01*
X46776998Y-27107783D01*
X46707500Y-27114977D01*
X46645145Y-27083454D01*
X46628425Y-27064158D01*
X46498494Y-26878597D01*
X46331402Y-26711506D01*
X46331401Y-26711505D01*
X46145405Y-26581269D01*
X46101781Y-26526692D01*
X46094588Y-26457193D01*
X46126110Y-26394839D01*
X46145405Y-26378119D01*
X46221373Y-26324925D01*
X45589409Y-25692962D01*
X45652993Y-25675925D01*
X45767007Y-25610099D01*
X45860099Y-25517007D01*
X45925925Y-25402993D01*
X45942962Y-25339410D01*
X46574925Y-25971373D01*
G37*
G04 #@! TD.AperFunction*
G04 #@! TA.AperFunction,Conductor*
G36*
X52693039Y-22020185D02*
G01*
X52738794Y-22072989D01*
X52750000Y-22124500D01*
X52750000Y-23350000D01*
X52750000Y-31850000D01*
X63017364Y-31866694D01*
X63084369Y-31886488D01*
X63130038Y-31939366D01*
X63139869Y-32008541D01*
X63110741Y-32072049D01*
X63069565Y-32103076D01*
X62927267Y-32169431D01*
X62927265Y-32169432D01*
X62740858Y-32299954D01*
X62579954Y-32460858D01*
X62449432Y-32647265D01*
X62449431Y-32647267D01*
X62353261Y-32853502D01*
X62353258Y-32853511D01*
X62294366Y-33073302D01*
X62294364Y-33073313D01*
X62274532Y-33299998D01*
X62274532Y-33300001D01*
X62294364Y-33526686D01*
X62294366Y-33526697D01*
X62353258Y-33746488D01*
X62353261Y-33746497D01*
X62449431Y-33952732D01*
X62449432Y-33952734D01*
X62579954Y-34139141D01*
X62740858Y-34300045D01*
X62740861Y-34300047D01*
X62927266Y-34430568D01*
X63133504Y-34526739D01*
X63353308Y-34585635D01*
X63515230Y-34599801D01*
X63579998Y-34605468D01*
X63580000Y-34605468D01*
X63580002Y-34605468D01*
X63636807Y-34600498D01*
X63806692Y-34585635D01*
X64026496Y-34526739D01*
X64232734Y-34430568D01*
X64419139Y-34300047D01*
X64580047Y-34139139D01*
X64710568Y-33952734D01*
X64806739Y-33746496D01*
X64865635Y-33526692D01*
X64885468Y-33300000D01*
X64884719Y-33291443D01*
X64865635Y-33073313D01*
X64865635Y-33073308D01*
X64806739Y-32853504D01*
X64710568Y-32647266D01*
X64593319Y-32479815D01*
X64580045Y-32460858D01*
X64419141Y-32299954D01*
X64232734Y-32169432D01*
X64232732Y-32169431D01*
X64174880Y-32142454D01*
X64094372Y-32104912D01*
X64041934Y-32058740D01*
X64022782Y-31991547D01*
X64042998Y-31924666D01*
X64096163Y-31879331D01*
X64146977Y-31868531D01*
X70023249Y-31878086D01*
X70090255Y-31897880D01*
X70135924Y-31950758D01*
X70145755Y-32019933D01*
X70116627Y-32083441D01*
X70097358Y-32101352D01*
X70042452Y-32142455D01*
X69956206Y-32257664D01*
X69956202Y-32257671D01*
X69905908Y-32392517D01*
X69900092Y-32446623D01*
X69899501Y-32452123D01*
X69899500Y-32452135D01*
X69899500Y-34147870D01*
X69899501Y-34147876D01*
X69905908Y-34207483D01*
X69956202Y-34342328D01*
X69956206Y-34342335D01*
X70042452Y-34457544D01*
X70042455Y-34457547D01*
X70157664Y-34543793D01*
X70157671Y-34543797D01*
X70292517Y-34594091D01*
X70292516Y-34594091D01*
X70299444Y-34594835D01*
X70352127Y-34600500D01*
X72047872Y-34600499D01*
X72107483Y-34594091D01*
X72242331Y-34543796D01*
X72357546Y-34457546D01*
X72443796Y-34342331D01*
X72494091Y-34207483D01*
X72500500Y-34147873D01*
X72500499Y-32452128D01*
X72494091Y-32392517D01*
X72475442Y-32342517D01*
X72443797Y-32257671D01*
X72443793Y-32257664D01*
X72357547Y-32142455D01*
X72357544Y-32142452D01*
X72307766Y-32105188D01*
X72265895Y-32049254D01*
X72260911Y-31979563D01*
X72294397Y-31918240D01*
X72355720Y-31884756D01*
X72382276Y-31881922D01*
X82375704Y-31898171D01*
X82442709Y-31917965D01*
X82488378Y-31970843D01*
X82499500Y-32022171D01*
X82499500Y-47376000D01*
X82479815Y-47443039D01*
X82427011Y-47488794D01*
X82375500Y-47500000D01*
X76500000Y-47500000D01*
X76500000Y-53375500D01*
X76480315Y-53442539D01*
X76427511Y-53488294D01*
X76376000Y-53499500D01*
X27124000Y-53499500D01*
X27056961Y-53479815D01*
X27011206Y-53427011D01*
X27000000Y-53375500D01*
X27000000Y-50794704D01*
X30000000Y-50794704D01*
X30006401Y-50854232D01*
X30006403Y-50854239D01*
X30056645Y-50988946D01*
X30056649Y-50988953D01*
X30142809Y-51104047D01*
X30142812Y-51104050D01*
X30257906Y-51190210D01*
X30257913Y-51190214D01*
X30392620Y-51240456D01*
X30392627Y-51240458D01*
X30452155Y-51246859D01*
X30452172Y-51246860D01*
X31157218Y-51246860D01*
X31224257Y-51266545D01*
X31270012Y-51319349D01*
X31279956Y-51388507D01*
X31250931Y-51452063D01*
X31224999Y-51472754D01*
X31225886Y-51474081D01*
X31089711Y-51565070D01*
X31089707Y-51565073D01*
X30978213Y-51676567D01*
X30978210Y-51676571D01*
X30890609Y-51807674D01*
X30890602Y-51807687D01*
X30830264Y-51953358D01*
X30830261Y-51953370D01*
X30799500Y-52108013D01*
X30799500Y-52265706D01*
X30830261Y-52420349D01*
X30830264Y-52420361D01*
X30890602Y-52566032D01*
X30890609Y-52566045D01*
X30978210Y-52697148D01*
X30978213Y-52697152D01*
X31089707Y-52808646D01*
X31089711Y-52808649D01*
X31220814Y-52896250D01*
X31220827Y-52896257D01*
X31366498Y-52956595D01*
X31366503Y-52956597D01*
X31521153Y-52987359D01*
X31521156Y-52987360D01*
X31521158Y-52987360D01*
X31678844Y-52987360D01*
X31678845Y-52987359D01*
X31833497Y-52956597D01*
X31979179Y-52896254D01*
X32110289Y-52808649D01*
X32221789Y-52697149D01*
X32309394Y-52566039D01*
X32369737Y-52420357D01*
X32400500Y-52265702D01*
X32400500Y-52108018D01*
X32400500Y-52108015D01*
X32400499Y-52108013D01*
X32369738Y-51953370D01*
X32369737Y-51953363D01*
X32369735Y-51953358D01*
X32309397Y-51807687D01*
X32309390Y-51807674D01*
X32221789Y-51676571D01*
X32221786Y-51676567D01*
X32110292Y-51565073D01*
X32110288Y-51565070D01*
X31974114Y-51474081D01*
X31975695Y-51471714D01*
X31934526Y-51431330D01*
X31919019Y-51363203D01*
X31942805Y-51297507D01*
X31998334Y-51255100D01*
X32042782Y-51246860D01*
X32747828Y-51246860D01*
X32747844Y-51246859D01*
X32807372Y-51240458D01*
X32807379Y-51240456D01*
X32942086Y-51190214D01*
X32942093Y-51190210D01*
X33057186Y-51104050D01*
X33114498Y-51027493D01*
X33170432Y-50985622D01*
X33240124Y-50980638D01*
X33278555Y-50996077D01*
X33411140Y-51077326D01*
X33494383Y-51111806D01*
X33643889Y-51173733D01*
X33811043Y-51213863D01*
X33871634Y-51248652D01*
X33903799Y-51310678D01*
X33897323Y-51380247D01*
X33854264Y-51435271D01*
X33829550Y-51448997D01*
X33760820Y-51477466D01*
X33760814Y-51477469D01*
X33629711Y-51565070D01*
X33629707Y-51565073D01*
X33518213Y-51676567D01*
X33518210Y-51676571D01*
X33430609Y-51807674D01*
X33430602Y-51807687D01*
X33370264Y-51953358D01*
X33370261Y-51953370D01*
X33339500Y-52108013D01*
X33339500Y-52265706D01*
X33370261Y-52420349D01*
X33370264Y-52420361D01*
X33430602Y-52566032D01*
X33430609Y-52566045D01*
X33518210Y-52697148D01*
X33518213Y-52697152D01*
X33629707Y-52808646D01*
X33629711Y-52808649D01*
X33760814Y-52896250D01*
X33760827Y-52896257D01*
X33906498Y-52956595D01*
X33906503Y-52956597D01*
X34061153Y-52987359D01*
X34061156Y-52987360D01*
X34061158Y-52987360D01*
X34218844Y-52987360D01*
X34218845Y-52987359D01*
X34373497Y-52956597D01*
X34519179Y-52896254D01*
X34650289Y-52808649D01*
X34761789Y-52697149D01*
X34849394Y-52566039D01*
X34909737Y-52420357D01*
X34940500Y-52265702D01*
X34940500Y-52108018D01*
X34940500Y-52108015D01*
X34940499Y-52108013D01*
X34909738Y-51953370D01*
X34909737Y-51953363D01*
X34909735Y-51953358D01*
X34849397Y-51807687D01*
X34849390Y-51807674D01*
X34761789Y-51676571D01*
X34761786Y-51676567D01*
X34650292Y-51565073D01*
X34650288Y-51565070D01*
X34552912Y-51500005D01*
X42244357Y-51500005D01*
X42264890Y-51747812D01*
X42264892Y-51747824D01*
X42325936Y-51988881D01*
X42425826Y-52216606D01*
X42561833Y-52424782D01*
X42561836Y-52424785D01*
X42730256Y-52607738D01*
X42926491Y-52760474D01*
X43145190Y-52878828D01*
X43380386Y-52959571D01*
X43625665Y-53000500D01*
X43874335Y-53000500D01*
X44119614Y-52959571D01*
X44354810Y-52878828D01*
X44573509Y-52760474D01*
X44769744Y-52607738D01*
X44938164Y-52424785D01*
X45074173Y-52216607D01*
X45174063Y-51988881D01*
X45235108Y-51747821D01*
X45241012Y-51676571D01*
X45255643Y-51500005D01*
X46744357Y-51500005D01*
X46764890Y-51747812D01*
X46764892Y-51747824D01*
X46825936Y-51988881D01*
X46925826Y-52216606D01*
X47061833Y-52424782D01*
X47061836Y-52424785D01*
X47230256Y-52607738D01*
X47426491Y-52760474D01*
X47645190Y-52878828D01*
X47880386Y-52959571D01*
X48125665Y-53000500D01*
X48374335Y-53000500D01*
X48619614Y-52959571D01*
X48854810Y-52878828D01*
X49073509Y-52760474D01*
X49269744Y-52607738D01*
X49438164Y-52424785D01*
X49574173Y-52216607D01*
X49674063Y-51988881D01*
X49735108Y-51747821D01*
X49741012Y-51676571D01*
X49755643Y-51500005D01*
X49755643Y-51499994D01*
X49735109Y-51252187D01*
X49735107Y-51252175D01*
X49674063Y-51011118D01*
X49579134Y-50794704D01*
X54700610Y-50794704D01*
X54707011Y-50854232D01*
X54707013Y-50854239D01*
X54757255Y-50988946D01*
X54757259Y-50988953D01*
X54843419Y-51104047D01*
X54843422Y-51104050D01*
X54958516Y-51190210D01*
X54958523Y-51190214D01*
X55093230Y-51240456D01*
X55093237Y-51240458D01*
X55152765Y-51246859D01*
X55152782Y-51246860D01*
X55857828Y-51246860D01*
X55924867Y-51266545D01*
X55970622Y-51319349D01*
X55980566Y-51388507D01*
X55951541Y-51452063D01*
X55925609Y-51472754D01*
X55926496Y-51474081D01*
X55790321Y-51565070D01*
X55790317Y-51565073D01*
X55678823Y-51676567D01*
X55678820Y-51676571D01*
X55591219Y-51807674D01*
X55591212Y-51807687D01*
X55530874Y-51953358D01*
X55530871Y-51953370D01*
X55500110Y-52108013D01*
X55500110Y-52265706D01*
X55530871Y-52420349D01*
X55530874Y-52420361D01*
X55591212Y-52566032D01*
X55591219Y-52566045D01*
X55678820Y-52697148D01*
X55678823Y-52697152D01*
X55790317Y-52808646D01*
X55790321Y-52808649D01*
X55921424Y-52896250D01*
X55921437Y-52896257D01*
X56067108Y-52956595D01*
X56067113Y-52956597D01*
X56221763Y-52987359D01*
X56221766Y-52987360D01*
X56221768Y-52987360D01*
X56379454Y-52987360D01*
X56379455Y-52987359D01*
X56534107Y-52956597D01*
X56679789Y-52896254D01*
X56810899Y-52808649D01*
X56922399Y-52697149D01*
X57010004Y-52566039D01*
X57070347Y-52420357D01*
X57101110Y-52265702D01*
X57101110Y-52108018D01*
X57101110Y-52108015D01*
X57101109Y-52108013D01*
X57070348Y-51953370D01*
X57070347Y-51953363D01*
X57070345Y-51953358D01*
X57010007Y-51807687D01*
X57010000Y-51807674D01*
X56922399Y-51676571D01*
X56922396Y-51676567D01*
X56810902Y-51565073D01*
X56810898Y-51565070D01*
X56674724Y-51474081D01*
X56676305Y-51471714D01*
X56635136Y-51431330D01*
X56619629Y-51363203D01*
X56643415Y-51297507D01*
X56698944Y-51255100D01*
X56743392Y-51246860D01*
X57448438Y-51246860D01*
X57448454Y-51246859D01*
X57507982Y-51240458D01*
X57507989Y-51240456D01*
X57642696Y-51190214D01*
X57642703Y-51190210D01*
X57757796Y-51104050D01*
X57815108Y-51027493D01*
X57871042Y-50985622D01*
X57940734Y-50980638D01*
X57979165Y-50996077D01*
X58111750Y-51077326D01*
X58194993Y-51111806D01*
X58344499Y-51173733D01*
X58511653Y-51213863D01*
X58572244Y-51248652D01*
X58604409Y-51310678D01*
X58597933Y-51380247D01*
X58554874Y-51435271D01*
X58530160Y-51448997D01*
X58461430Y-51477466D01*
X58461424Y-51477469D01*
X58330321Y-51565070D01*
X58330317Y-51565073D01*
X58218823Y-51676567D01*
X58218820Y-51676571D01*
X58131219Y-51807674D01*
X58131212Y-51807687D01*
X58070874Y-51953358D01*
X58070871Y-51953370D01*
X58040110Y-52108013D01*
X58040110Y-52265706D01*
X58070871Y-52420349D01*
X58070874Y-52420361D01*
X58131212Y-52566032D01*
X58131219Y-52566045D01*
X58218820Y-52697148D01*
X58218823Y-52697152D01*
X58330317Y-52808646D01*
X58330321Y-52808649D01*
X58461424Y-52896250D01*
X58461437Y-52896257D01*
X58607108Y-52956595D01*
X58607113Y-52956597D01*
X58761763Y-52987359D01*
X58761766Y-52987360D01*
X58761768Y-52987360D01*
X58919454Y-52987360D01*
X58919455Y-52987359D01*
X59074107Y-52956597D01*
X59219789Y-52896254D01*
X59350899Y-52808649D01*
X59462399Y-52697149D01*
X59550004Y-52566039D01*
X59610347Y-52420357D01*
X59641110Y-52265702D01*
X59641110Y-52108018D01*
X59641110Y-52108015D01*
X59641109Y-52108013D01*
X59610348Y-51953370D01*
X59610347Y-51953363D01*
X59610345Y-51953358D01*
X59550007Y-51807687D01*
X59550000Y-51807674D01*
X59462399Y-51676571D01*
X59462396Y-51676567D01*
X59350902Y-51565073D01*
X59350898Y-51565070D01*
X59253522Y-51500005D01*
X66994357Y-51500005D01*
X67014890Y-51747812D01*
X67014892Y-51747824D01*
X67075936Y-51988881D01*
X67175826Y-52216606D01*
X67311833Y-52424782D01*
X67311836Y-52424785D01*
X67480256Y-52607738D01*
X67676491Y-52760474D01*
X67895190Y-52878828D01*
X68130386Y-52959571D01*
X68375665Y-53000500D01*
X68624335Y-53000500D01*
X68869614Y-52959571D01*
X69104810Y-52878828D01*
X69323509Y-52760474D01*
X69519744Y-52607738D01*
X69688164Y-52424785D01*
X69824173Y-52216607D01*
X69924063Y-51988881D01*
X69985108Y-51747821D01*
X69991012Y-51676571D01*
X70005643Y-51500005D01*
X70005643Y-51499994D01*
X69985109Y-51252187D01*
X69985107Y-51252175D01*
X69924063Y-51011118D01*
X69824173Y-50783393D01*
X69688166Y-50575217D01*
X69666557Y-50551744D01*
X69519744Y-50392262D01*
X69323509Y-50239526D01*
X69323507Y-50239525D01*
X69323506Y-50239524D01*
X69104811Y-50121172D01*
X69104802Y-50121169D01*
X68869616Y-50040429D01*
X68624335Y-49999500D01*
X68375665Y-49999500D01*
X68130383Y-50040429D01*
X67895197Y-50121169D01*
X67895188Y-50121172D01*
X67676493Y-50239524D01*
X67480257Y-50392261D01*
X67311833Y-50575217D01*
X67175826Y-50783393D01*
X67075936Y-51011118D01*
X67014892Y-51252175D01*
X67014890Y-51252187D01*
X66994357Y-51499994D01*
X66994357Y-51500005D01*
X59253522Y-51500005D01*
X59219795Y-51477469D01*
X59219785Y-51477464D01*
X59151060Y-51448997D01*
X59096657Y-51405156D01*
X59074592Y-51338861D01*
X59091871Y-51271162D01*
X59143009Y-51223552D01*
X59169560Y-51213864D01*
X59336721Y-51173733D01*
X59569469Y-51077326D01*
X59784269Y-50945696D01*
X59975834Y-50782084D01*
X60139446Y-50590519D01*
X60271076Y-50375719D01*
X60367483Y-50142971D01*
X60426293Y-49898008D01*
X60446059Y-49646860D01*
X60426293Y-49395712D01*
X60367483Y-49150749D01*
X60271076Y-48918001D01*
X60271076Y-48918000D01*
X60139449Y-48703206D01*
X60139448Y-48703203D01*
X60040046Y-48586819D01*
X59975834Y-48511636D01*
X59825160Y-48382948D01*
X59784266Y-48348021D01*
X59784263Y-48348020D01*
X59569469Y-48216393D01*
X59336720Y-48119986D01*
X59091761Y-48061177D01*
X58840610Y-48041411D01*
X58589458Y-48061177D01*
X58344499Y-48119986D01*
X58111755Y-48216391D01*
X57979165Y-48297643D01*
X57911719Y-48315887D01*
X57845116Y-48294770D01*
X57815109Y-48266226D01*
X57757800Y-48189672D01*
X57757797Y-48189669D01*
X57642703Y-48103509D01*
X57642696Y-48103505D01*
X57507989Y-48053263D01*
X57507982Y-48053261D01*
X57448454Y-48046860D01*
X56550610Y-48046860D01*
X56550610Y-49156112D01*
X56512902Y-49134342D01*
X56373019Y-49096860D01*
X56228201Y-49096860D01*
X56088318Y-49134342D01*
X56050610Y-49156112D01*
X56050610Y-48046860D01*
X55152765Y-48046860D01*
X55093237Y-48053261D01*
X55093230Y-48053263D01*
X54958523Y-48103505D01*
X54958516Y-48103509D01*
X54843422Y-48189669D01*
X54843419Y-48189672D01*
X54757259Y-48304766D01*
X54757255Y-48304773D01*
X54707013Y-48439480D01*
X54707011Y-48439487D01*
X54700610Y-48499015D01*
X54700610Y-49396860D01*
X55809862Y-49396860D01*
X55788092Y-49434568D01*
X55750610Y-49574451D01*
X55750610Y-49719269D01*
X55788092Y-49859152D01*
X55809862Y-49896860D01*
X54700610Y-49896860D01*
X54700610Y-50794704D01*
X49579134Y-50794704D01*
X49574173Y-50783393D01*
X49438166Y-50575217D01*
X49416557Y-50551744D01*
X49269744Y-50392262D01*
X49073509Y-50239526D01*
X49073507Y-50239525D01*
X49073506Y-50239524D01*
X48854811Y-50121172D01*
X48854802Y-50121169D01*
X48619616Y-50040429D01*
X48374335Y-49999500D01*
X48125665Y-49999500D01*
X47880383Y-50040429D01*
X47645197Y-50121169D01*
X47645188Y-50121172D01*
X47426493Y-50239524D01*
X47230257Y-50392261D01*
X47061833Y-50575217D01*
X46925826Y-50783393D01*
X46825936Y-51011118D01*
X46764892Y-51252175D01*
X46764890Y-51252187D01*
X46744357Y-51499994D01*
X46744357Y-51500005D01*
X45255643Y-51500005D01*
X45255643Y-51499994D01*
X45235109Y-51252187D01*
X45235107Y-51252175D01*
X45174063Y-51011118D01*
X45074173Y-50783393D01*
X44938166Y-50575217D01*
X44916557Y-50551744D01*
X44769744Y-50392262D01*
X44573509Y-50239526D01*
X44573507Y-50239525D01*
X44573506Y-50239524D01*
X44354811Y-50121172D01*
X44354802Y-50121169D01*
X44119616Y-50040429D01*
X43874335Y-49999500D01*
X43625665Y-49999500D01*
X43380383Y-50040429D01*
X43145197Y-50121169D01*
X43145188Y-50121172D01*
X42926493Y-50239524D01*
X42730257Y-50392261D01*
X42561833Y-50575217D01*
X42425826Y-50783393D01*
X42325936Y-51011118D01*
X42264892Y-51252175D01*
X42264890Y-51252187D01*
X42244357Y-51499994D01*
X42244357Y-51500005D01*
X34552912Y-51500005D01*
X34519185Y-51477469D01*
X34519175Y-51477464D01*
X34450450Y-51448997D01*
X34396047Y-51405156D01*
X34373982Y-51338861D01*
X34391261Y-51271162D01*
X34442399Y-51223552D01*
X34468950Y-51213864D01*
X34636111Y-51173733D01*
X34868859Y-51077326D01*
X35083659Y-50945696D01*
X35275224Y-50782084D01*
X35438836Y-50590519D01*
X35570466Y-50375719D01*
X35666873Y-50142971D01*
X35725683Y-49898008D01*
X35745449Y-49646860D01*
X35725683Y-49395712D01*
X35666873Y-49150749D01*
X35570466Y-48918001D01*
X35570466Y-48918000D01*
X35438839Y-48703206D01*
X35438838Y-48703203D01*
X35339436Y-48586819D01*
X35275224Y-48511636D01*
X35124550Y-48382948D01*
X35083656Y-48348021D01*
X35083653Y-48348020D01*
X34868859Y-48216393D01*
X34636110Y-48119986D01*
X34391151Y-48061177D01*
X34140000Y-48041411D01*
X33888848Y-48061177D01*
X33643889Y-48119986D01*
X33411145Y-48216391D01*
X33278555Y-48297643D01*
X33211109Y-48315887D01*
X33144506Y-48294770D01*
X33114499Y-48266226D01*
X33057190Y-48189672D01*
X33057187Y-48189669D01*
X32942093Y-48103509D01*
X32942086Y-48103505D01*
X32807379Y-48053263D01*
X32807372Y-48053261D01*
X32747844Y-48046860D01*
X31850000Y-48046860D01*
X31850000Y-49156112D01*
X31812292Y-49134342D01*
X31672409Y-49096860D01*
X31527591Y-49096860D01*
X31387708Y-49134342D01*
X31350000Y-49156112D01*
X31350000Y-48046860D01*
X30452155Y-48046860D01*
X30392627Y-48053261D01*
X30392620Y-48053263D01*
X30257913Y-48103505D01*
X30257906Y-48103509D01*
X30142812Y-48189669D01*
X30142809Y-48189672D01*
X30056649Y-48304766D01*
X30056645Y-48304773D01*
X30006403Y-48439480D01*
X30006401Y-48439487D01*
X30000000Y-48499015D01*
X30000000Y-49396860D01*
X31109252Y-49396860D01*
X31087482Y-49434568D01*
X31050000Y-49574451D01*
X31050000Y-49719269D01*
X31087482Y-49859152D01*
X31109252Y-49896860D01*
X30000000Y-49896860D01*
X30000000Y-50794704D01*
X27000000Y-50794704D01*
X27000000Y-47500000D01*
X21124500Y-47500000D01*
X21057461Y-47480315D01*
X21011706Y-47427511D01*
X21000500Y-47376000D01*
X21000500Y-45000005D01*
X42244357Y-45000005D01*
X42264890Y-45247812D01*
X42264892Y-45247824D01*
X42325936Y-45488881D01*
X42425826Y-45716606D01*
X42561833Y-45924782D01*
X42561835Y-45924784D01*
X42561836Y-45924785D01*
X42730256Y-46107738D01*
X42926491Y-46260474D01*
X43145190Y-46378828D01*
X43380386Y-46459571D01*
X43625665Y-46500500D01*
X43874335Y-46500500D01*
X44119614Y-46459571D01*
X44354810Y-46378828D01*
X44573509Y-46260474D01*
X44769744Y-46107738D01*
X44938164Y-45924785D01*
X45074173Y-45716607D01*
X45174063Y-45488881D01*
X45235108Y-45247821D01*
X45255643Y-45000000D01*
X45235108Y-44752179D01*
X45174063Y-44511119D01*
X45132801Y-44417052D01*
X45074173Y-44283393D01*
X44938166Y-44075217D01*
X44916557Y-44051744D01*
X44769744Y-43892262D01*
X44573509Y-43739526D01*
X44573507Y-43739525D01*
X44573506Y-43739524D01*
X44354811Y-43621172D01*
X44354802Y-43621169D01*
X44119616Y-43540429D01*
X43874335Y-43499500D01*
X43625665Y-43499500D01*
X43380383Y-43540429D01*
X43145197Y-43621169D01*
X43145188Y-43621172D01*
X42926493Y-43739524D01*
X42730257Y-43892261D01*
X42561833Y-44075217D01*
X42425826Y-44283393D01*
X42325936Y-44511118D01*
X42264892Y-44752175D01*
X42264890Y-44752187D01*
X42244357Y-44999994D01*
X42244357Y-45000005D01*
X21000500Y-45000005D01*
X21000500Y-41200000D01*
X22194357Y-41200000D01*
X22214890Y-41447812D01*
X22214892Y-41447824D01*
X22275936Y-41688881D01*
X22375826Y-41916606D01*
X22511833Y-42124782D01*
X22511836Y-42124785D01*
X22680256Y-42307738D01*
X22876491Y-42460474D01*
X23095190Y-42578828D01*
X23330386Y-42659571D01*
X23575665Y-42700500D01*
X23824335Y-42700500D01*
X24069614Y-42659571D01*
X24304810Y-42578828D01*
X24523509Y-42460474D01*
X24719744Y-42307738D01*
X24888164Y-42124785D01*
X25024173Y-41916607D01*
X25124063Y-41688881D01*
X25185108Y-41447821D01*
X25195473Y-41322741D01*
X25205643Y-41200000D01*
X25205643Y-41199994D01*
X25185109Y-40952187D01*
X25185107Y-40952175D01*
X25124063Y-40711118D01*
X25024173Y-40483393D01*
X24888166Y-40275217D01*
X24864953Y-40250001D01*
X28194532Y-40250001D01*
X28214364Y-40476686D01*
X28214366Y-40476697D01*
X28273258Y-40696488D01*
X28273261Y-40696497D01*
X28369431Y-40902732D01*
X28369432Y-40902734D01*
X28499954Y-41089141D01*
X28660858Y-41250045D01*
X28660861Y-41250047D01*
X28847266Y-41380568D01*
X29053504Y-41476739D01*
X29273308Y-41535635D01*
X29435230Y-41549801D01*
X29499998Y-41555468D01*
X29500000Y-41555468D01*
X29500002Y-41555468D01*
X29562511Y-41549999D01*
X29726692Y-41535635D01*
X29946496Y-41476739D01*
X30152734Y-41380568D01*
X30339139Y-41250047D01*
X30496694Y-41092491D01*
X30558016Y-41059008D01*
X30627707Y-41063992D01*
X30683641Y-41105863D01*
X30705051Y-41151658D01*
X30706402Y-41157378D01*
X30756645Y-41292086D01*
X30756649Y-41292093D01*
X30842809Y-41407187D01*
X30842812Y-41407190D01*
X30957906Y-41493350D01*
X30957913Y-41493354D01*
X31092620Y-41543596D01*
X31092627Y-41543598D01*
X31152155Y-41549999D01*
X31152172Y-41550000D01*
X31750000Y-41550000D01*
X31750000Y-40565686D01*
X31754394Y-40570080D01*
X31845606Y-40622741D01*
X31947339Y-40650000D01*
X32052661Y-40650000D01*
X32154394Y-40622741D01*
X32245606Y-40570080D01*
X32250000Y-40565686D01*
X32250000Y-41550000D01*
X32847828Y-41550000D01*
X32847844Y-41549999D01*
X32907372Y-41543598D01*
X32907379Y-41543596D01*
X33042086Y-41493354D01*
X33042093Y-41493350D01*
X33157187Y-41407190D01*
X33157190Y-41407187D01*
X33243350Y-41292093D01*
X33243354Y-41292086D01*
X33293596Y-41157379D01*
X33293598Y-41157372D01*
X33299999Y-41097844D01*
X33300000Y-41097827D01*
X33300000Y-40500000D01*
X32315686Y-40500000D01*
X32320080Y-40495606D01*
X32372741Y-40404394D01*
X32400000Y-40302661D01*
X32400000Y-40197339D01*
X32372741Y-40095606D01*
X32320080Y-40004394D01*
X32315686Y-40000000D01*
X33300000Y-40000000D01*
X33300000Y-39402172D01*
X33299999Y-39402155D01*
X33293598Y-39342627D01*
X33293596Y-39342620D01*
X33243354Y-39207913D01*
X33243350Y-39207906D01*
X33157190Y-39092812D01*
X33157187Y-39092809D01*
X33042093Y-39006649D01*
X33042086Y-39006645D01*
X32907379Y-38956403D01*
X32907372Y-38956401D01*
X32847844Y-38950000D01*
X32250000Y-38950000D01*
X32250000Y-39934314D01*
X32245606Y-39929920D01*
X32154394Y-39877259D01*
X32052661Y-39850000D01*
X31947339Y-39850000D01*
X31845606Y-39877259D01*
X31754394Y-39929920D01*
X31750000Y-39934314D01*
X31750000Y-38950000D01*
X31152155Y-38950000D01*
X31092627Y-38956401D01*
X31092620Y-38956403D01*
X30957913Y-39006645D01*
X30957906Y-39006649D01*
X30842812Y-39092809D01*
X30842809Y-39092812D01*
X30756649Y-39207906D01*
X30756645Y-39207913D01*
X30706401Y-39342626D01*
X30705050Y-39348343D01*
X30670475Y-39409058D01*
X30608564Y-39441443D01*
X30538972Y-39435214D01*
X30496693Y-39407506D01*
X30339141Y-39249954D01*
X30152734Y-39119432D01*
X30152732Y-39119431D01*
X29946497Y-39023261D01*
X29946488Y-39023258D01*
X29726697Y-38964366D01*
X29726693Y-38964365D01*
X29726692Y-38964365D01*
X29726691Y-38964364D01*
X29726686Y-38964364D01*
X29500002Y-38944532D01*
X29499998Y-38944532D01*
X29273313Y-38964364D01*
X29273302Y-38964366D01*
X29053511Y-39023258D01*
X29053502Y-39023261D01*
X28847267Y-39119431D01*
X28847265Y-39119432D01*
X28660858Y-39249954D01*
X28499954Y-39410858D01*
X28369432Y-39597265D01*
X28369431Y-39597267D01*
X28273261Y-39803502D01*
X28273258Y-39803511D01*
X28214366Y-40023302D01*
X28214364Y-40023313D01*
X28194532Y-40249998D01*
X28194532Y-40250001D01*
X24864953Y-40250001D01*
X24765018Y-40141443D01*
X24719744Y-40092262D01*
X24523509Y-39939526D01*
X24523507Y-39939525D01*
X24523506Y-39939524D01*
X24304811Y-39821172D01*
X24304802Y-39821169D01*
X24069616Y-39740429D01*
X23824335Y-39699500D01*
X23575665Y-39699500D01*
X23330383Y-39740429D01*
X23095197Y-39821169D01*
X23095188Y-39821172D01*
X22876493Y-39939524D01*
X22680257Y-40092261D01*
X22511833Y-40275217D01*
X22375826Y-40483393D01*
X22275936Y-40711118D01*
X22214892Y-40952175D01*
X22214890Y-40952187D01*
X22194357Y-41199994D01*
X22194357Y-41200000D01*
X21000500Y-41200000D01*
X21000500Y-36750000D01*
X34234551Y-36750000D01*
X34254317Y-37001151D01*
X34313126Y-37246110D01*
X34409533Y-37478859D01*
X34541160Y-37693653D01*
X34541161Y-37693656D01*
X34541164Y-37693659D01*
X34704776Y-37885224D01*
X34789259Y-37957379D01*
X34896343Y-38048838D01*
X34896346Y-38048839D01*
X35111140Y-38180466D01*
X35343889Y-38276873D01*
X35588852Y-38335683D01*
X35840000Y-38355449D01*
X36091148Y-38335683D01*
X36336111Y-38276873D01*
X36568859Y-38180466D01*
X36783659Y-38048836D01*
X36975224Y-37885224D01*
X37138836Y-37693659D01*
X37270466Y-37478859D01*
X37366873Y-37246111D01*
X37425683Y-37001148D01*
X37445449Y-36750000D01*
X37425683Y-36498852D01*
X37366873Y-36253889D01*
X37344552Y-36200000D01*
X37270466Y-36021140D01*
X37138839Y-35806346D01*
X37138838Y-35806343D01*
X37045019Y-35696496D01*
X36975224Y-35614776D01*
X36835694Y-35495606D01*
X36783656Y-35451161D01*
X36783653Y-35451160D01*
X36568859Y-35319533D01*
X36336110Y-35223126D01*
X36091151Y-35164317D01*
X35840000Y-35144551D01*
X35588848Y-35164317D01*
X35343889Y-35223126D01*
X35111140Y-35319533D01*
X34896346Y-35451160D01*
X34896343Y-35451161D01*
X34704776Y-35614776D01*
X34541161Y-35806343D01*
X34541160Y-35806346D01*
X34409533Y-36021140D01*
X34313126Y-36253889D01*
X34254317Y-36498848D01*
X34234551Y-36750000D01*
X21000500Y-36750000D01*
X21000500Y-34100001D01*
X23444532Y-34100001D01*
X23464364Y-34326686D01*
X23464366Y-34326697D01*
X23523258Y-34546488D01*
X23523261Y-34546497D01*
X23619431Y-34752732D01*
X23619432Y-34752734D01*
X23749954Y-34939141D01*
X23910858Y-35100045D01*
X23910861Y-35100047D01*
X24097266Y-35230568D01*
X24303504Y-35326739D01*
X24523308Y-35385635D01*
X24685230Y-35399801D01*
X24749998Y-35405468D01*
X24750000Y-35405468D01*
X24750002Y-35405468D01*
X24812511Y-35399999D01*
X24976692Y-35385635D01*
X25196496Y-35326739D01*
X25402734Y-35230568D01*
X25589139Y-35100047D01*
X25746694Y-34942491D01*
X25808016Y-34909008D01*
X25877707Y-34913992D01*
X25933641Y-34955863D01*
X25955051Y-35001658D01*
X25956402Y-35007378D01*
X26006645Y-35142086D01*
X26006649Y-35142093D01*
X26092809Y-35257187D01*
X26092812Y-35257190D01*
X26207906Y-35343350D01*
X26207913Y-35343354D01*
X26342620Y-35393596D01*
X26342627Y-35393598D01*
X26402155Y-35399999D01*
X26402172Y-35400000D01*
X27000000Y-35400000D01*
X27000000Y-34415686D01*
X27004394Y-34420080D01*
X27095606Y-34472741D01*
X27197339Y-34500000D01*
X27302661Y-34500000D01*
X27404394Y-34472741D01*
X27495606Y-34420080D01*
X27500000Y-34415686D01*
X27500000Y-35400000D01*
X28097828Y-35400000D01*
X28097844Y-35399999D01*
X28157372Y-35393598D01*
X28157379Y-35393596D01*
X28292086Y-35343354D01*
X28292093Y-35343350D01*
X28407187Y-35257190D01*
X28407190Y-35257187D01*
X28493350Y-35142093D01*
X28493354Y-35142086D01*
X28543596Y-35007379D01*
X28543598Y-35007372D01*
X28549999Y-34947844D01*
X28550000Y-34947827D01*
X28550000Y-34350000D01*
X27565686Y-34350000D01*
X27570080Y-34345606D01*
X27622741Y-34254394D01*
X27650000Y-34152661D01*
X27650000Y-34047339D01*
X27622741Y-33945606D01*
X27570080Y-33854394D01*
X27565686Y-33850000D01*
X28550000Y-33850000D01*
X28550000Y-33252172D01*
X28549999Y-33252155D01*
X28543598Y-33192627D01*
X28543596Y-33192620D01*
X28493354Y-33057913D01*
X28493350Y-33057906D01*
X28407190Y-32942812D01*
X28407187Y-32942809D01*
X28292093Y-32856649D01*
X28292086Y-32856645D01*
X28157379Y-32806403D01*
X28157372Y-32806401D01*
X28097844Y-32800000D01*
X27500000Y-32800000D01*
X27500000Y-33784314D01*
X27495606Y-33779920D01*
X27404394Y-33727259D01*
X27302661Y-33700000D01*
X27197339Y-33700000D01*
X27095606Y-33727259D01*
X27004394Y-33779920D01*
X27000000Y-33784314D01*
X27000000Y-32800000D01*
X26402155Y-32800000D01*
X26342627Y-32806401D01*
X26342620Y-32806403D01*
X26207913Y-32856645D01*
X26207906Y-32856649D01*
X26092812Y-32942809D01*
X26092809Y-32942812D01*
X26006649Y-33057906D01*
X26006645Y-33057913D01*
X25956401Y-33192626D01*
X25955050Y-33198343D01*
X25920475Y-33259058D01*
X25858564Y-33291443D01*
X25788972Y-33285214D01*
X25746693Y-33257506D01*
X25589141Y-33099954D01*
X25402734Y-32969432D01*
X25402732Y-32969431D01*
X25196497Y-32873261D01*
X25196488Y-32873258D01*
X24976697Y-32814366D01*
X24976693Y-32814365D01*
X24976692Y-32814365D01*
X24976691Y-32814364D01*
X24976686Y-32814364D01*
X24750002Y-32794532D01*
X24749998Y-32794532D01*
X24523313Y-32814364D01*
X24523302Y-32814366D01*
X24303511Y-32873258D01*
X24303502Y-32873261D01*
X24097267Y-32969431D01*
X24097265Y-32969432D01*
X23910858Y-33099954D01*
X23749954Y-33260858D01*
X23619432Y-33447265D01*
X23619431Y-33447267D01*
X23523261Y-33653502D01*
X23523258Y-33653511D01*
X23464366Y-33873302D01*
X23464364Y-33873313D01*
X23444532Y-34099998D01*
X23444532Y-34100001D01*
X21000500Y-34100001D01*
X21000500Y-31673920D01*
X32249499Y-31673920D01*
X32278340Y-31818907D01*
X32278342Y-31818913D01*
X32334916Y-31955495D01*
X32335141Y-31955831D01*
X32335170Y-31955924D01*
X32335193Y-31955909D01*
X32368798Y-32006204D01*
X32417051Y-32078420D01*
X32417052Y-32078421D01*
X34171580Y-33832948D01*
X34171584Y-33832951D01*
X34294498Y-33915080D01*
X34294511Y-33915087D01*
X34431082Y-33971656D01*
X34431087Y-33971658D01*
X34431091Y-33971658D01*
X34431092Y-33971659D01*
X34576079Y-34000500D01*
X34576082Y-34000500D01*
X34723917Y-34000500D01*
X35503337Y-34000500D01*
X35570376Y-34020185D01*
X35604912Y-34053377D01*
X35629954Y-34089141D01*
X35790858Y-34250045D01*
X35790861Y-34250047D01*
X35977266Y-34380568D01*
X36183504Y-34476739D01*
X36403308Y-34535635D01*
X36565230Y-34549801D01*
X36629998Y-34555468D01*
X36630000Y-34555468D01*
X36630002Y-34555468D01*
X36686807Y-34550498D01*
X36856692Y-34535635D01*
X37076496Y-34476739D01*
X37282734Y-34380568D01*
X37469139Y-34250047D01*
X37621316Y-34097870D01*
X42949500Y-34097870D01*
X42949501Y-34097876D01*
X42955908Y-34157483D01*
X43006202Y-34292328D01*
X43006206Y-34292335D01*
X43092452Y-34407544D01*
X43092455Y-34407547D01*
X43207664Y-34493793D01*
X43207671Y-34493797D01*
X43342517Y-34544091D01*
X43342516Y-34544091D01*
X43349444Y-34544835D01*
X43402127Y-34550500D01*
X45097872Y-34550499D01*
X45157483Y-34544091D01*
X45292331Y-34493796D01*
X45407546Y-34407546D01*
X45493796Y-34292331D01*
X45544091Y-34157483D01*
X45550500Y-34097873D01*
X45550499Y-32402128D01*
X45544091Y-32342517D01*
X45509567Y-32249954D01*
X45493797Y-32207671D01*
X45493793Y-32207664D01*
X45407547Y-32092455D01*
X45407544Y-32092452D01*
X45292335Y-32006206D01*
X45292328Y-32006202D01*
X45157482Y-31955908D01*
X45157483Y-31955908D01*
X45097883Y-31949501D01*
X45097881Y-31949500D01*
X45097873Y-31949500D01*
X45097864Y-31949500D01*
X43402129Y-31949500D01*
X43402123Y-31949501D01*
X43342516Y-31955908D01*
X43207671Y-32006202D01*
X43207664Y-32006206D01*
X43092455Y-32092452D01*
X43092452Y-32092455D01*
X43006206Y-32207664D01*
X43006202Y-32207671D01*
X42955908Y-32342517D01*
X42950533Y-32392516D01*
X42949501Y-32402123D01*
X42949500Y-32402135D01*
X42949500Y-34097870D01*
X37621316Y-34097870D01*
X37630047Y-34089139D01*
X37760568Y-33902734D01*
X37856739Y-33696496D01*
X37915635Y-33476692D01*
X37935278Y-33252172D01*
X37935468Y-33250001D01*
X37935468Y-33249998D01*
X37929801Y-33185230D01*
X37915635Y-33023308D01*
X37870136Y-32853502D01*
X37856741Y-32803511D01*
X37856738Y-32803502D01*
X37783884Y-32647267D01*
X37760568Y-32597266D01*
X37630047Y-32410861D01*
X37630045Y-32410858D01*
X37469141Y-32249954D01*
X37282734Y-32119432D01*
X37282732Y-32119431D01*
X37076497Y-32023261D01*
X37076488Y-32023258D01*
X36856697Y-31964366D01*
X36856693Y-31964365D01*
X36856692Y-31964365D01*
X36856691Y-31964364D01*
X36856686Y-31964364D01*
X36630002Y-31944532D01*
X36629998Y-31944532D01*
X36403313Y-31964364D01*
X36403302Y-31964366D01*
X36183511Y-32023258D01*
X36183502Y-32023261D01*
X35977267Y-32119431D01*
X35977265Y-32119432D01*
X35790858Y-32249954D01*
X35629954Y-32410858D01*
X35604912Y-32446623D01*
X35550335Y-32490248D01*
X35503337Y-32499500D01*
X35012229Y-32499500D01*
X34945190Y-32479815D01*
X34924548Y-32463181D01*
X33786819Y-31325451D01*
X33753334Y-31264128D01*
X33750500Y-31237770D01*
X33750500Y-26612229D01*
X33770185Y-26545190D01*
X33786819Y-26524548D01*
X34314548Y-25996819D01*
X34375871Y-25963334D01*
X34402229Y-25960500D01*
X36652299Y-25960500D01*
X36719338Y-25980185D01*
X36753873Y-26013376D01*
X36766278Y-26031092D01*
X36801505Y-26081401D01*
X36968599Y-26248495D01*
X36968604Y-26248499D01*
X36969968Y-26249643D01*
X36970407Y-26250303D01*
X36972427Y-26252323D01*
X36972021Y-26252728D01*
X37008669Y-26307815D01*
X37009776Y-26377676D01*
X36972937Y-26437046D01*
X36929267Y-26462336D01*
X36920669Y-26465184D01*
X36920663Y-26465187D01*
X36771342Y-26557289D01*
X36647289Y-26681342D01*
X36555187Y-26830663D01*
X36555185Y-26830668D01*
X36538701Y-26880414D01*
X36500001Y-26997203D01*
X36500001Y-26997204D01*
X36500000Y-26997204D01*
X36489500Y-27099983D01*
X36489500Y-28400001D01*
X36489501Y-28400018D01*
X36500000Y-28502796D01*
X36500001Y-28502799D01*
X36539303Y-28621402D01*
X36555186Y-28669334D01*
X36647288Y-28818656D01*
X36771344Y-28942712D01*
X36920666Y-29034814D01*
X37087203Y-29089999D01*
X37189991Y-29100500D01*
X38490008Y-29100499D01*
X38592797Y-29089999D01*
X38759334Y-29034814D01*
X38908656Y-28942712D01*
X39032712Y-28818656D01*
X39124814Y-28669334D01*
X39127662Y-28660738D01*
X39167429Y-28603294D01*
X39231944Y-28576468D01*
X39300720Y-28588779D01*
X39337483Y-28617766D01*
X39337677Y-28617573D01*
X39339313Y-28619209D01*
X39340354Y-28620030D01*
X39341501Y-28621398D01*
X39508595Y-28788492D01*
X39508598Y-28788494D01*
X39508599Y-28788495D01*
X39576623Y-28836125D01*
X39620248Y-28890701D01*
X39629500Y-28937700D01*
X39629500Y-29203918D01*
X39629500Y-29203920D01*
X39629499Y-29203920D01*
X39658340Y-29348907D01*
X39658343Y-29348917D01*
X39714912Y-29485488D01*
X39714916Y-29485495D01*
X39739028Y-29521581D01*
X39739029Y-29521584D01*
X39739030Y-29521584D01*
X39797051Y-29608420D01*
X39797052Y-29608421D01*
X40771584Y-30582952D01*
X40771586Y-30582954D01*
X40801058Y-30602645D01*
X40845270Y-30632186D01*
X40894505Y-30665084D01*
X40894506Y-30665084D01*
X40894507Y-30665085D01*
X40894509Y-30665086D01*
X41031082Y-30721656D01*
X41031087Y-30721658D01*
X41031091Y-30721658D01*
X41031092Y-30721659D01*
X41176079Y-30750500D01*
X41176082Y-30750500D01*
X41176083Y-30750500D01*
X41323918Y-30750500D01*
X46387770Y-30750500D01*
X46454809Y-30770185D01*
X46475451Y-30786819D01*
X47463181Y-31774548D01*
X47496666Y-31835871D01*
X47499500Y-31862229D01*
X47499500Y-35086763D01*
X47479815Y-35153802D01*
X47427011Y-35199557D01*
X47357853Y-35209501D01*
X47332168Y-35202945D01*
X47207382Y-35156403D01*
X47207372Y-35156401D01*
X47147844Y-35150000D01*
X46250000Y-35150000D01*
X46250000Y-36259252D01*
X46212292Y-36237482D01*
X46072409Y-36200000D01*
X45927591Y-36200000D01*
X45787708Y-36237482D01*
X45750000Y-36259252D01*
X45750000Y-35150000D01*
X44852155Y-35150000D01*
X44792627Y-35156401D01*
X44792620Y-35156403D01*
X44657913Y-35206645D01*
X44657906Y-35206649D01*
X44542812Y-35292809D01*
X44542809Y-35292812D01*
X44456649Y-35407906D01*
X44456645Y-35407913D01*
X44406403Y-35542620D01*
X44406401Y-35542627D01*
X44400000Y-35602155D01*
X44400000Y-36500000D01*
X45509252Y-36500000D01*
X45487482Y-36537708D01*
X45450000Y-36677591D01*
X45450000Y-36822409D01*
X45487482Y-36962292D01*
X45509252Y-37000000D01*
X44400000Y-37000000D01*
X44400000Y-37897844D01*
X44406401Y-37957372D01*
X44406403Y-37957379D01*
X44456645Y-38092086D01*
X44456649Y-38092093D01*
X44542809Y-38207187D01*
X44542812Y-38207190D01*
X44657906Y-38293350D01*
X44657913Y-38293354D01*
X44792620Y-38343596D01*
X44792627Y-38343598D01*
X44852155Y-38349999D01*
X44852172Y-38350000D01*
X45750000Y-38350000D01*
X45750000Y-37240747D01*
X45787708Y-37262518D01*
X45927591Y-37300000D01*
X46072409Y-37300000D01*
X46212292Y-37262518D01*
X46250000Y-37240747D01*
X46250000Y-38350000D01*
X47147828Y-38350000D01*
X47147844Y-38349999D01*
X47207372Y-38343598D01*
X47207379Y-38343596D01*
X47332167Y-38297054D01*
X47401858Y-38292070D01*
X47463182Y-38325555D01*
X47496666Y-38386878D01*
X47499500Y-38413236D01*
X47499500Y-43626128D01*
X47479815Y-43693167D01*
X47434522Y-43735179D01*
X47426491Y-43739526D01*
X47295667Y-43841350D01*
X47230257Y-43892261D01*
X47061833Y-44075217D01*
X46925826Y-44283393D01*
X46825936Y-44511118D01*
X46764892Y-44752175D01*
X46764890Y-44752187D01*
X46744357Y-44999994D01*
X46744357Y-45000005D01*
X46764890Y-45247812D01*
X46764892Y-45247824D01*
X46825936Y-45488881D01*
X46925826Y-45716606D01*
X47061833Y-45924782D01*
X47061835Y-45924784D01*
X47061836Y-45924785D01*
X47230256Y-46107738D01*
X47426491Y-46260474D01*
X47645190Y-46378828D01*
X47880386Y-46459571D01*
X48125665Y-46500500D01*
X48374335Y-46500500D01*
X48619614Y-46459571D01*
X48854810Y-46378828D01*
X49073509Y-46260474D01*
X49269744Y-46107738D01*
X49438164Y-45924785D01*
X49515327Y-45806677D01*
X49568474Y-45761322D01*
X49619136Y-45750500D01*
X61437770Y-45750500D01*
X61504809Y-45770185D01*
X61525451Y-45786819D01*
X63569661Y-47831029D01*
X63603146Y-47892352D01*
X63603597Y-47894518D01*
X63628340Y-48018907D01*
X63628343Y-48018917D01*
X63684912Y-48155488D01*
X63684919Y-48155501D01*
X63767048Y-48278415D01*
X63767051Y-48278419D01*
X63871580Y-48382948D01*
X63871584Y-48382951D01*
X63994498Y-48465080D01*
X63994511Y-48465087D01*
X64131082Y-48521656D01*
X64131087Y-48521658D01*
X64131091Y-48521658D01*
X64131092Y-48521659D01*
X64276079Y-48550500D01*
X64276082Y-48550500D01*
X64526083Y-48550500D01*
X64673917Y-48550500D01*
X68937770Y-48550500D01*
X69004809Y-48570185D01*
X69025451Y-48586819D01*
X71500618Y-51061985D01*
X71534103Y-51123308D01*
X71533143Y-51180106D01*
X71514891Y-51252182D01*
X71494357Y-51499994D01*
X71494357Y-51500005D01*
X71514890Y-51747812D01*
X71514892Y-51747824D01*
X71575936Y-51988881D01*
X71675826Y-52216606D01*
X71811833Y-52424782D01*
X71811836Y-52424785D01*
X71980256Y-52607738D01*
X72176491Y-52760474D01*
X72395190Y-52878828D01*
X72630386Y-52959571D01*
X72875665Y-53000500D01*
X73124335Y-53000500D01*
X73369614Y-52959571D01*
X73604810Y-52878828D01*
X73823509Y-52760474D01*
X74019744Y-52607738D01*
X74188164Y-52424785D01*
X74324173Y-52216607D01*
X74424063Y-51988881D01*
X74485108Y-51747821D01*
X74491012Y-51676571D01*
X74505643Y-51500005D01*
X74505643Y-51499994D01*
X74485109Y-51252187D01*
X74485107Y-51252175D01*
X74424063Y-51011118D01*
X74324173Y-50783393D01*
X74188166Y-50575217D01*
X74166557Y-50551744D01*
X74019744Y-50392262D01*
X73823509Y-50239526D01*
X73823507Y-50239525D01*
X73823506Y-50239524D01*
X73604811Y-50121172D01*
X73604802Y-50121169D01*
X73369616Y-50040429D01*
X73124335Y-49999500D01*
X72875665Y-49999500D01*
X72668841Y-50034012D01*
X72599476Y-50025630D01*
X72560751Y-49999384D01*
X69778421Y-47217052D01*
X69778417Y-47217049D01*
X69778416Y-47217048D01*
X69655494Y-47134916D01*
X69655492Y-47134915D01*
X69655490Y-47134914D01*
X69518912Y-47078342D01*
X69518906Y-47078340D01*
X69373919Y-47049500D01*
X69373917Y-47049500D01*
X69273918Y-47049500D01*
X64962230Y-47049500D01*
X64895191Y-47029815D01*
X64874549Y-47013181D01*
X62861374Y-45000005D01*
X66994357Y-45000005D01*
X67014890Y-45247812D01*
X67014892Y-45247824D01*
X67075936Y-45488881D01*
X67175826Y-45716606D01*
X67311833Y-45924782D01*
X67311835Y-45924784D01*
X67311836Y-45924785D01*
X67480256Y-46107738D01*
X67676491Y-46260474D01*
X67895190Y-46378828D01*
X68130386Y-46459571D01*
X68375665Y-46500500D01*
X68624335Y-46500500D01*
X68869614Y-46459571D01*
X69104810Y-46378828D01*
X69323509Y-46260474D01*
X69519744Y-46107738D01*
X69688164Y-45924785D01*
X69824173Y-45716607D01*
X69924063Y-45488881D01*
X69985108Y-45247821D01*
X70005643Y-45000005D01*
X71494357Y-45000005D01*
X71514890Y-45247812D01*
X71514892Y-45247824D01*
X71575936Y-45488881D01*
X71675826Y-45716606D01*
X71811833Y-45924782D01*
X71811835Y-45924784D01*
X71811836Y-45924785D01*
X71980256Y-46107738D01*
X72176491Y-46260474D01*
X72395190Y-46378828D01*
X72630386Y-46459571D01*
X72875665Y-46500500D01*
X73124335Y-46500500D01*
X73369614Y-46459571D01*
X73604810Y-46378828D01*
X73823509Y-46260474D01*
X74019744Y-46107738D01*
X74188164Y-45924785D01*
X74324173Y-45716607D01*
X74424063Y-45488881D01*
X74485108Y-45247821D01*
X74505643Y-45000000D01*
X74485108Y-44752179D01*
X74424063Y-44511119D01*
X74382801Y-44417052D01*
X74324173Y-44283393D01*
X74188166Y-44075217D01*
X74166557Y-44051744D01*
X74019744Y-43892262D01*
X73823509Y-43739526D01*
X73823507Y-43739525D01*
X73823506Y-43739524D01*
X73604811Y-43621172D01*
X73604802Y-43621169D01*
X73369616Y-43540429D01*
X73124335Y-43499500D01*
X72875665Y-43499500D01*
X72630383Y-43540429D01*
X72395197Y-43621169D01*
X72395188Y-43621172D01*
X72176493Y-43739524D01*
X71980257Y-43892261D01*
X71811833Y-44075217D01*
X71675826Y-44283393D01*
X71575936Y-44511118D01*
X71514892Y-44752175D01*
X71514890Y-44752187D01*
X71494357Y-44999994D01*
X71494357Y-45000005D01*
X70005643Y-45000005D01*
X70005643Y-45000000D01*
X69985108Y-44752179D01*
X69924063Y-44511119D01*
X69882801Y-44417052D01*
X69824173Y-44283393D01*
X69688166Y-44075217D01*
X69666557Y-44051744D01*
X69519744Y-43892262D01*
X69323509Y-43739526D01*
X69323507Y-43739525D01*
X69323506Y-43739524D01*
X69104811Y-43621172D01*
X69104802Y-43621169D01*
X68869616Y-43540429D01*
X68624335Y-43499500D01*
X68375665Y-43499500D01*
X68130383Y-43540429D01*
X67895197Y-43621169D01*
X67895188Y-43621172D01*
X67676493Y-43739524D01*
X67480257Y-43892261D01*
X67311833Y-44075217D01*
X67175826Y-44283393D01*
X67075936Y-44511118D01*
X67014892Y-44752175D01*
X67014890Y-44752187D01*
X66994357Y-44999994D01*
X66994357Y-45000005D01*
X62861374Y-45000005D01*
X62278421Y-44417052D01*
X62278414Y-44417046D01*
X62204729Y-44367812D01*
X62204729Y-44367813D01*
X62155491Y-44334913D01*
X62018917Y-44278343D01*
X62018907Y-44278340D01*
X61873920Y-44249500D01*
X61873918Y-44249500D01*
X49619136Y-44249500D01*
X49552097Y-44229815D01*
X49515327Y-44193322D01*
X49438164Y-44075215D01*
X49269744Y-43892262D01*
X49073509Y-43739526D01*
X49065477Y-43735179D01*
X49015891Y-43685961D01*
X49000500Y-43626128D01*
X49000500Y-40950001D01*
X54126912Y-40950001D01*
X54146744Y-41176686D01*
X54146746Y-41176697D01*
X54205638Y-41396488D01*
X54205641Y-41396497D01*
X54301811Y-41602732D01*
X54301812Y-41602734D01*
X54432334Y-41789141D01*
X54593238Y-41950045D01*
X54593241Y-41950047D01*
X54779646Y-42080568D01*
X54985884Y-42176739D01*
X55205688Y-42235635D01*
X55367610Y-42249801D01*
X55432378Y-42255468D01*
X55432380Y-42255468D01*
X55432382Y-42255468D01*
X55494891Y-42249999D01*
X55659072Y-42235635D01*
X55878876Y-42176739D01*
X56085114Y-42080568D01*
X56271519Y-41950047D01*
X56429074Y-41792491D01*
X56490396Y-41759008D01*
X56560087Y-41763992D01*
X56616021Y-41805863D01*
X56637431Y-41851658D01*
X56638782Y-41857378D01*
X56689025Y-41992086D01*
X56689029Y-41992093D01*
X56775189Y-42107187D01*
X56775192Y-42107190D01*
X56890286Y-42193350D01*
X56890293Y-42193354D01*
X57025000Y-42243596D01*
X57025007Y-42243598D01*
X57084535Y-42249999D01*
X57084552Y-42250000D01*
X57682380Y-42250000D01*
X57682380Y-41265686D01*
X57686774Y-41270080D01*
X57777986Y-41322741D01*
X57879719Y-41350000D01*
X57985041Y-41350000D01*
X58086774Y-41322741D01*
X58177986Y-41270080D01*
X58182380Y-41265686D01*
X58182380Y-42250000D01*
X58780208Y-42250000D01*
X58780224Y-42249999D01*
X58839752Y-42243598D01*
X58839759Y-42243596D01*
X58974466Y-42193354D01*
X58974473Y-42193350D01*
X59089567Y-42107190D01*
X59089570Y-42107187D01*
X59175730Y-41992093D01*
X59175734Y-41992086D01*
X59225976Y-41857379D01*
X59225978Y-41857372D01*
X59232379Y-41797844D01*
X59232380Y-41797827D01*
X59232380Y-41200000D01*
X58248066Y-41200000D01*
X58252460Y-41195606D01*
X58305121Y-41104394D01*
X58332380Y-41002661D01*
X58332380Y-40897339D01*
X58305121Y-40795606D01*
X58252460Y-40704394D01*
X58248066Y-40700000D01*
X59232380Y-40700000D01*
X59232380Y-40102172D01*
X59232379Y-40102155D01*
X59225978Y-40042627D01*
X59225976Y-40042620D01*
X59175734Y-39907913D01*
X59175730Y-39907906D01*
X59089570Y-39792812D01*
X59089567Y-39792809D01*
X58974473Y-39706649D01*
X58974466Y-39706645D01*
X58839759Y-39656403D01*
X58839752Y-39656401D01*
X58780224Y-39650000D01*
X58182380Y-39650000D01*
X58182380Y-40634314D01*
X58177986Y-40629920D01*
X58086774Y-40577259D01*
X57985041Y-40550000D01*
X57879719Y-40550000D01*
X57777986Y-40577259D01*
X57686774Y-40629920D01*
X57682380Y-40634314D01*
X57682380Y-39650000D01*
X57084535Y-39650000D01*
X57025007Y-39656401D01*
X57025000Y-39656403D01*
X56890293Y-39706645D01*
X56890286Y-39706649D01*
X56775192Y-39792809D01*
X56775189Y-39792812D01*
X56689029Y-39907906D01*
X56689025Y-39907913D01*
X56638781Y-40042626D01*
X56637430Y-40048343D01*
X56602855Y-40109058D01*
X56540944Y-40141443D01*
X56471352Y-40135214D01*
X56429073Y-40107506D01*
X56271521Y-39949954D01*
X56085114Y-39819432D01*
X56085112Y-39819431D01*
X55878877Y-39723261D01*
X55878868Y-39723258D01*
X55659077Y-39664366D01*
X55659073Y-39664365D01*
X55659072Y-39664365D01*
X55659071Y-39664364D01*
X55659066Y-39664364D01*
X55432382Y-39644532D01*
X55432378Y-39644532D01*
X55205693Y-39664364D01*
X55205682Y-39664366D01*
X54985891Y-39723258D01*
X54985882Y-39723261D01*
X54779647Y-39819431D01*
X54779645Y-39819432D01*
X54593238Y-39949954D01*
X54432334Y-40110858D01*
X54301812Y-40297265D01*
X54301811Y-40297267D01*
X54205641Y-40503502D01*
X54205638Y-40503511D01*
X54146746Y-40723302D01*
X54146744Y-40723313D01*
X54126912Y-40949998D01*
X54126912Y-40950001D01*
X49000500Y-40950001D01*
X49000500Y-36750000D01*
X59484551Y-36750000D01*
X59504317Y-37001151D01*
X59563126Y-37246110D01*
X59659533Y-37478859D01*
X59791160Y-37693653D01*
X59791161Y-37693656D01*
X59791164Y-37693659D01*
X59954776Y-37885224D01*
X60039259Y-37957379D01*
X60146343Y-38048838D01*
X60146346Y-38048839D01*
X60361140Y-38180466D01*
X60593889Y-38276873D01*
X60838852Y-38335683D01*
X61090000Y-38355449D01*
X61341148Y-38335683D01*
X61586111Y-38276873D01*
X61818859Y-38180466D01*
X62033659Y-38048836D01*
X62210448Y-37897844D01*
X69650000Y-37897844D01*
X69656401Y-37957372D01*
X69656403Y-37957379D01*
X69706645Y-38092086D01*
X69706649Y-38092093D01*
X69792809Y-38207187D01*
X69792812Y-38207190D01*
X69907906Y-38293350D01*
X69907913Y-38293354D01*
X70042620Y-38343596D01*
X70042627Y-38343598D01*
X70102155Y-38349999D01*
X70102172Y-38350000D01*
X71000000Y-38350000D01*
X71000000Y-37240747D01*
X71037708Y-37262518D01*
X71177591Y-37300000D01*
X71322409Y-37300000D01*
X71462292Y-37262518D01*
X71500000Y-37240747D01*
X71500000Y-38350000D01*
X72397828Y-38350000D01*
X72397844Y-38349999D01*
X72457372Y-38343598D01*
X72457379Y-38343596D01*
X72592086Y-38293354D01*
X72592093Y-38293350D01*
X72707187Y-38207190D01*
X72707190Y-38207187D01*
X72793350Y-38092093D01*
X72793354Y-38092086D01*
X72843596Y-37957379D01*
X72843598Y-37957372D01*
X72849999Y-37897844D01*
X72850000Y-37897827D01*
X72850000Y-37000000D01*
X71740748Y-37000000D01*
X71762518Y-36962292D01*
X71800000Y-36822409D01*
X71800000Y-36677591D01*
X71762518Y-36537708D01*
X71740748Y-36500000D01*
X72850000Y-36500000D01*
X72850000Y-35602172D01*
X72849999Y-35602155D01*
X72843598Y-35542627D01*
X72843596Y-35542620D01*
X72793354Y-35407913D01*
X72793350Y-35407906D01*
X72707190Y-35292812D01*
X72707187Y-35292809D01*
X72592093Y-35206649D01*
X72592086Y-35206645D01*
X72457379Y-35156403D01*
X72457372Y-35156401D01*
X72397844Y-35150000D01*
X71500000Y-35150000D01*
X71500000Y-36259252D01*
X71462292Y-36237482D01*
X71322409Y-36200000D01*
X71177591Y-36200000D01*
X71037708Y-36237482D01*
X71000000Y-36259252D01*
X71000000Y-35150000D01*
X70102155Y-35150000D01*
X70042627Y-35156401D01*
X70042620Y-35156403D01*
X69907913Y-35206645D01*
X69907906Y-35206649D01*
X69792812Y-35292809D01*
X69792809Y-35292812D01*
X69706649Y-35407906D01*
X69706645Y-35407913D01*
X69656403Y-35542620D01*
X69656401Y-35542627D01*
X69650000Y-35602155D01*
X69650000Y-36500000D01*
X70759252Y-36500000D01*
X70737482Y-36537708D01*
X70700000Y-36677591D01*
X70700000Y-36822409D01*
X70737482Y-36962292D01*
X70759252Y-37000000D01*
X69650000Y-37000000D01*
X69650000Y-37897844D01*
X62210448Y-37897844D01*
X62225224Y-37885224D01*
X62388836Y-37693659D01*
X62520466Y-37478859D01*
X62616873Y-37246111D01*
X62675683Y-37001148D01*
X62695449Y-36750000D01*
X62675683Y-36498852D01*
X62616873Y-36253889D01*
X62594552Y-36200000D01*
X62520466Y-36021140D01*
X62388839Y-35806346D01*
X62388838Y-35806343D01*
X62295019Y-35696496D01*
X62225224Y-35614776D01*
X62085694Y-35495606D01*
X62033656Y-35451161D01*
X62033653Y-35451160D01*
X61818859Y-35319533D01*
X61586110Y-35223126D01*
X61341151Y-35164317D01*
X61090000Y-35144551D01*
X60838848Y-35164317D01*
X60593889Y-35223126D01*
X60361140Y-35319533D01*
X60146346Y-35451160D01*
X60146343Y-35451161D01*
X59954776Y-35614776D01*
X59791161Y-35806343D01*
X59791160Y-35806346D01*
X59659533Y-36021140D01*
X59563126Y-36253889D01*
X59504317Y-36498848D01*
X59484551Y-36750000D01*
X49000500Y-36750000D01*
X49000500Y-35620411D01*
X49020185Y-35553372D01*
X49072989Y-35507617D01*
X49142147Y-35497673D01*
X49205703Y-35526698D01*
X49243477Y-35585476D01*
X49244275Y-35588318D01*
X49273258Y-35696488D01*
X49273261Y-35696497D01*
X49369431Y-35902732D01*
X49369432Y-35902734D01*
X49499954Y-36089141D01*
X49660858Y-36250045D01*
X49660861Y-36250047D01*
X49847266Y-36380568D01*
X50053504Y-36476739D01*
X50273308Y-36535635D01*
X50435230Y-36549801D01*
X50499998Y-36555468D01*
X50500000Y-36555468D01*
X50500002Y-36555468D01*
X50562511Y-36549999D01*
X50726692Y-36535635D01*
X50946496Y-36476739D01*
X51152734Y-36380568D01*
X51339139Y-36250047D01*
X51496694Y-36092491D01*
X51558016Y-36059008D01*
X51627707Y-36063992D01*
X51683641Y-36105863D01*
X51705051Y-36151658D01*
X51706402Y-36157378D01*
X51756645Y-36292086D01*
X51756649Y-36292093D01*
X51842809Y-36407187D01*
X51842812Y-36407190D01*
X51957906Y-36493350D01*
X51957913Y-36493354D01*
X52092620Y-36543596D01*
X52092627Y-36543598D01*
X52152155Y-36549999D01*
X52152172Y-36550000D01*
X52750000Y-36550000D01*
X52750000Y-35565686D01*
X52754394Y-35570080D01*
X52845606Y-35622741D01*
X52947339Y-35650000D01*
X53052661Y-35650000D01*
X53154394Y-35622741D01*
X53245606Y-35570080D01*
X53250000Y-35565686D01*
X53250000Y-36550000D01*
X53847828Y-36550000D01*
X53847844Y-36549999D01*
X53907372Y-36543598D01*
X53907379Y-36543596D01*
X54042086Y-36493354D01*
X54042093Y-36493350D01*
X54157187Y-36407190D01*
X54157190Y-36407187D01*
X54243350Y-36292093D01*
X54243354Y-36292086D01*
X54293596Y-36157379D01*
X54293598Y-36157372D01*
X54299999Y-36097844D01*
X54300000Y-36097827D01*
X54300000Y-35500000D01*
X53315686Y-35500000D01*
X53320080Y-35495606D01*
X53372741Y-35404394D01*
X53400000Y-35302661D01*
X53400000Y-35197339D01*
X53372741Y-35095606D01*
X53320080Y-35004394D01*
X53315686Y-35000000D01*
X54300000Y-35000000D01*
X54300000Y-34402172D01*
X54299999Y-34402155D01*
X54293598Y-34342627D01*
X54293596Y-34342620D01*
X54243354Y-34207913D01*
X54243350Y-34207906D01*
X54157190Y-34092812D01*
X54157187Y-34092809D01*
X54042093Y-34006649D01*
X54042086Y-34006645D01*
X53907379Y-33956403D01*
X53907372Y-33956401D01*
X53847844Y-33950000D01*
X53250000Y-33950000D01*
X53250000Y-34934314D01*
X53245606Y-34929920D01*
X53154394Y-34877259D01*
X53052661Y-34850000D01*
X52947339Y-34850000D01*
X52845606Y-34877259D01*
X52754394Y-34929920D01*
X52750000Y-34934314D01*
X52750000Y-33950000D01*
X52152155Y-33950000D01*
X52092627Y-33956401D01*
X52092620Y-33956403D01*
X51957913Y-34006645D01*
X51957906Y-34006649D01*
X51842812Y-34092809D01*
X51842809Y-34092812D01*
X51756649Y-34207906D01*
X51756645Y-34207913D01*
X51706401Y-34342626D01*
X51705050Y-34348343D01*
X51670475Y-34409058D01*
X51608564Y-34441443D01*
X51538972Y-34435214D01*
X51496693Y-34407506D01*
X51339141Y-34249954D01*
X51152734Y-34119432D01*
X51152732Y-34119431D01*
X50946497Y-34023261D01*
X50946488Y-34023258D01*
X50726697Y-33964366D01*
X50726693Y-33964365D01*
X50726692Y-33964365D01*
X50726691Y-33964364D01*
X50726686Y-33964364D01*
X50500002Y-33944532D01*
X50499998Y-33944532D01*
X50273313Y-33964364D01*
X50273302Y-33964366D01*
X50053511Y-34023258D01*
X50053502Y-34023261D01*
X49847267Y-34119431D01*
X49847265Y-34119432D01*
X49660858Y-34249954D01*
X49499954Y-34410858D01*
X49369432Y-34597265D01*
X49369431Y-34597267D01*
X49273261Y-34803502D01*
X49273258Y-34803511D01*
X49244275Y-34911681D01*
X49207910Y-34971342D01*
X49145063Y-35001871D01*
X49075688Y-34993576D01*
X49021810Y-34949091D01*
X49000535Y-34882539D01*
X49000500Y-34879588D01*
X49000500Y-31426079D01*
X48971659Y-31281092D01*
X48971658Y-31281091D01*
X48971658Y-31281087D01*
X48953716Y-31237770D01*
X48915087Y-31144511D01*
X48915080Y-31144498D01*
X48832952Y-31021585D01*
X48832951Y-31021584D01*
X48728416Y-30917049D01*
X48394319Y-30582952D01*
X47228421Y-29417052D01*
X47228414Y-29417046D01*
X47154729Y-29367812D01*
X47154729Y-29367813D01*
X47105491Y-29334913D01*
X46968917Y-29278343D01*
X46968907Y-29278340D01*
X46823920Y-29249500D01*
X46823918Y-29249500D01*
X45999196Y-29249500D01*
X45932157Y-29229815D01*
X45886402Y-29177011D01*
X45876458Y-29107853D01*
X45905483Y-29044297D01*
X45946791Y-29013118D01*
X46137830Y-28924035D01*
X46331401Y-28788495D01*
X46498495Y-28621401D01*
X46628425Y-28435842D01*
X46683002Y-28392217D01*
X46752500Y-28385023D01*
X46814855Y-28416546D01*
X46831575Y-28435842D01*
X46961500Y-28621395D01*
X46961505Y-28621401D01*
X47128599Y-28788495D01*
X47171675Y-28818657D01*
X47322165Y-28924032D01*
X47322167Y-28924033D01*
X47322170Y-28924035D01*
X47536337Y-29023903D01*
X47764592Y-29085063D01*
X47941034Y-29100500D01*
X47999999Y-29105659D01*
X48000000Y-29105659D01*
X48000001Y-29105659D01*
X48058966Y-29100500D01*
X48235408Y-29085063D01*
X48463663Y-29023903D01*
X48677830Y-28924035D01*
X48871401Y-28788495D01*
X49038495Y-28621401D01*
X49174035Y-28427830D01*
X49273903Y-28213663D01*
X49335063Y-27985408D01*
X49355659Y-27750000D01*
X49335063Y-27514592D01*
X49273903Y-27286337D01*
X49174035Y-27072171D01*
X49168731Y-27064595D01*
X49038494Y-26878597D01*
X48871402Y-26711506D01*
X48871396Y-26711501D01*
X48685842Y-26581575D01*
X48642217Y-26526998D01*
X48635023Y-26457500D01*
X48666546Y-26395145D01*
X48685842Y-26378425D01*
X48813165Y-26289272D01*
X48871401Y-26248495D01*
X49038495Y-26081401D01*
X49174035Y-25887830D01*
X49273903Y-25673663D01*
X49335063Y-25445408D01*
X49355659Y-25210000D01*
X49335063Y-24974592D01*
X49273903Y-24746337D01*
X49174035Y-24532171D01*
X49168731Y-24524595D01*
X49038494Y-24338597D01*
X48871402Y-24171506D01*
X48871395Y-24171501D01*
X48677834Y-24035967D01*
X48677830Y-24035965D01*
X48677828Y-24035964D01*
X48463663Y-23936097D01*
X48463659Y-23936096D01*
X48463655Y-23936094D01*
X48235413Y-23874938D01*
X48235403Y-23874936D01*
X48000001Y-23854341D01*
X47999999Y-23854341D01*
X47764596Y-23874936D01*
X47764586Y-23874938D01*
X47536344Y-23936094D01*
X47536335Y-23936098D01*
X47322171Y-24035964D01*
X47322169Y-24035965D01*
X47128597Y-24171505D01*
X46961505Y-24338597D01*
X46831269Y-24524595D01*
X46776692Y-24568220D01*
X46707194Y-24575414D01*
X46644839Y-24543891D01*
X46628119Y-24524595D01*
X46574925Y-24448626D01*
X46574925Y-24448625D01*
X45942962Y-25080589D01*
X45925925Y-25017007D01*
X45860099Y-24902993D01*
X45767007Y-24809901D01*
X45652993Y-24744075D01*
X45589410Y-24727037D01*
X46221373Y-24095073D01*
X46221373Y-24095072D01*
X46137583Y-24036402D01*
X46137579Y-24036400D01*
X45923492Y-23936570D01*
X45923483Y-23936566D01*
X45695326Y-23875432D01*
X45695315Y-23875430D01*
X45460002Y-23854843D01*
X45459998Y-23854843D01*
X45224684Y-23875430D01*
X45224673Y-23875432D01*
X44996516Y-23936566D01*
X44996507Y-23936570D01*
X44782419Y-24036401D01*
X44698625Y-24095072D01*
X45330590Y-24727037D01*
X45267007Y-24744075D01*
X45152993Y-24809901D01*
X45059901Y-24902993D01*
X44994075Y-25017007D01*
X44977037Y-25080590D01*
X44345072Y-24448625D01*
X44345072Y-24448626D01*
X44291574Y-24525030D01*
X44236998Y-24568655D01*
X44167499Y-24575849D01*
X44105144Y-24544326D01*
X44088424Y-24525030D01*
X44034925Y-24448626D01*
X44034925Y-24448625D01*
X43402962Y-25080589D01*
X43385925Y-25017007D01*
X43320099Y-24902993D01*
X43227007Y-24809901D01*
X43112993Y-24744075D01*
X43049410Y-24727037D01*
X43681373Y-24095073D01*
X43681373Y-24095072D01*
X43597583Y-24036402D01*
X43597579Y-24036400D01*
X43383492Y-23936570D01*
X43383483Y-23936566D01*
X43155326Y-23875432D01*
X43155315Y-23875430D01*
X42920002Y-23854843D01*
X42919998Y-23854843D01*
X42684684Y-23875430D01*
X42684673Y-23875432D01*
X42456516Y-23936566D01*
X42456507Y-23936570D01*
X42242419Y-24036401D01*
X42158625Y-24095072D01*
X42790590Y-24727037D01*
X42727007Y-24744075D01*
X42612993Y-24809901D01*
X42519901Y-24902993D01*
X42454075Y-25017007D01*
X42437037Y-25080590D01*
X41805073Y-24448626D01*
X41751881Y-24524594D01*
X41697304Y-24568219D01*
X41627806Y-24575413D01*
X41565451Y-24543891D01*
X41548730Y-24524594D01*
X41418494Y-24338597D01*
X41251402Y-24171506D01*
X41251395Y-24171501D01*
X41057834Y-24035967D01*
X41057830Y-24035965D01*
X41057828Y-24035964D01*
X40843663Y-23936097D01*
X40843659Y-23936096D01*
X40843655Y-23936094D01*
X40615413Y-23874938D01*
X40615403Y-23874936D01*
X40380001Y-23854341D01*
X40379999Y-23854341D01*
X40144596Y-23874936D01*
X40144586Y-23874938D01*
X39916344Y-23936094D01*
X39916335Y-23936098D01*
X39702171Y-24035964D01*
X39702169Y-24035965D01*
X39508597Y-24171505D01*
X39341505Y-24338597D01*
X39211575Y-24524158D01*
X39156998Y-24567783D01*
X39087500Y-24574977D01*
X39025145Y-24543454D01*
X39008425Y-24524158D01*
X38878494Y-24338597D01*
X38711402Y-24171506D01*
X38711395Y-24171501D01*
X38517834Y-24035967D01*
X38517830Y-24035965D01*
X38517828Y-24035964D01*
X38303663Y-23936097D01*
X38303659Y-23936096D01*
X38303655Y-23936094D01*
X38075413Y-23874938D01*
X38075403Y-23874936D01*
X37840001Y-23854341D01*
X37839999Y-23854341D01*
X37604596Y-23874936D01*
X37604586Y-23874938D01*
X37376344Y-23936094D01*
X37376335Y-23936098D01*
X37162171Y-24035964D01*
X37162169Y-24035965D01*
X36968597Y-24171505D01*
X36801506Y-24338596D01*
X36753874Y-24406623D01*
X36699297Y-24450248D01*
X36652299Y-24459500D01*
X33966080Y-24459500D01*
X33821092Y-24488340D01*
X33821082Y-24488343D01*
X33684509Y-24544913D01*
X33684507Y-24544914D01*
X33650282Y-24567783D01*
X33643645Y-24572218D01*
X33638862Y-24575414D01*
X33561581Y-24627050D01*
X32417045Y-25771586D01*
X32384559Y-25820209D01*
X32384557Y-25820212D01*
X32334919Y-25894499D01*
X32334912Y-25894511D01*
X32278343Y-26031082D01*
X32278340Y-26031092D01*
X32249500Y-26176079D01*
X32249500Y-26176082D01*
X32249500Y-31673918D01*
X32249500Y-31673920D01*
X32249499Y-31673920D01*
X21000500Y-31673920D01*
X21000500Y-28124000D01*
X21020185Y-28056961D01*
X21072989Y-28011206D01*
X21124500Y-28000000D01*
X27000000Y-28000000D01*
X27000000Y-22124500D01*
X27019685Y-22057461D01*
X27072489Y-22011706D01*
X27124000Y-22000500D01*
X52626000Y-22000500D01*
X52693039Y-22020185D01*
G37*
G04 #@! TD.AperFunction*
M02*
