M48
; DRILL file {KiCad 8.0.0-rc1} date 2025-07-19T19:19:56+0200
; FORMAT={-:-/ absolute / inch / decimal}
; #@! TF.CreationDate,2025-07-19T19:19:56+02:00
; #@! TF.GenerationSoftware,Kicad,Pcbnew,8.0.0-rc1
; #@! TF.FileFunction,Plated,1,2,PTH
FMAT,2
INCH
; #@! TA.AperFunction,Plated,PTH,ViaDrill
T1C0.0118
; #@! TA.AperFunction,Plated,PTH,ComponentDrill
T2C0.0315
; #@! TA.AperFunction,Plated,PTH,ComponentDrill
T3C0.0394
; #@! TA.AperFunction,Plated,PTH,ComponentDrill
T4C0.0433
%
G90
G05
T1
X1.4665Y-1.9685
X2.4409Y-1.9783
T2
X0.9744Y-1.3425
X1.0728Y-1.3425
X1.1614Y-1.5846
X1.2598Y-1.5846
X1.4421Y-1.3091
X1.7421Y-1.3091
X1.9882Y-1.3878
X2.0866Y-1.3878
X2.1824Y-1.6122
X2.2808Y-1.6122
X2.5031Y-1.311
X2.8031Y-1.311
T3
X0.9331Y-1.622
X1.4898Y-0.9925
X1.4898Y-1.0925
X1.5898Y-0.9925
X1.5898Y-1.0925
X1.6898Y-0.9925
X1.6898Y-1.0925
X1.7898Y-0.9925
X1.7898Y-1.0925
X1.8898Y-0.9925
X1.8898Y-1.0925
T4
X1.2441Y-1.9546
X1.3441Y-1.9546
X1.411Y-1.4469
X1.7224Y-1.7717
X1.7224Y-2.0276
X1.811Y-1.4469
X1.8996Y-1.7717
X1.8996Y-2.0276
X2.2166Y-1.9546
X2.3166Y-1.9546
X2.4051Y-1.4469
X2.6969Y-1.7717
X2.6969Y-2.0276
X2.8051Y-1.4469
X2.874Y-1.7717
X2.874Y-2.0276
M30
