G04 #@! TF.GenerationSoftware,KiCad,Pcbnew,8.0.0-rc1*
G04 #@! TF.CreationDate,2025-07-19T19:19:54+02:00*
G04 #@! TF.ProjectId,Pneumatic control unit system,506e6575-6d61-4746-9963-20636f6e7472,rev?*
G04 #@! TF.SameCoordinates,Original*
G04 #@! TF.FileFunction,Paste,Top*
G04 #@! TF.FilePolarity,Positive*
%FSLAX46Y46*%
G04 Gerber Fmt 4.6, Leading zero omitted, Abs format (unit mm)*
G04 Created by KiCad (PCBNEW 8.0.0-rc1) date 2025-07-19 19:19:54*
%MOMM*%
%LPD*%
G01*
G04 APERTURE LIST*
G04 Aperture macros list*
%AMRoundRect*
0 Rectangle with rounded corners*
0 $1 Rounding radius*
0 $2 $3 $4 $5 $6 $7 $8 $9 X,Y pos of 4 corners*
0 Add a 4 corners polygon primitive as box body*
4,1,4,$2,$3,$4,$5,$6,$7,$8,$9,$2,$3,0*
0 Add four circle primitives for the rounded corners*
1,1,$1+$1,$2,$3*
1,1,$1+$1,$4,$5*
1,1,$1+$1,$6,$7*
1,1,$1+$1,$8,$9*
0 Add four rect primitives between the rounded corners*
20,1,$1+$1,$2,$3,$4,$5,0*
20,1,$1+$1,$4,$5,$6,$7,0*
20,1,$1+$1,$6,$7,$8,$9,0*
20,1,$1+$1,$8,$9,$2,$3,0*%
G04 Aperture macros list end*
%ADD10RoundRect,0.237500X0.250000X0.237500X-0.250000X0.237500X-0.250000X-0.237500X0.250000X-0.237500X0*%
%ADD11RoundRect,0.275000X-0.525000X-0.275000X0.525000X-0.275000X0.525000X0.275000X-0.525000X0.275000X0*%
%ADD12RoundRect,0.237500X0.237500X-0.300000X0.237500X0.300000X-0.237500X0.300000X-0.237500X-0.300000X0*%
%ADD13RoundRect,0.150000X-0.150000X0.587500X-0.150000X-0.587500X0.150000X-0.587500X0.150000X0.587500X0*%
%ADD14RoundRect,0.250000X0.325000X0.450000X-0.325000X0.450000X-0.325000X-0.450000X0.325000X-0.450000X0*%
%ADD15RoundRect,0.237500X-0.300000X-0.237500X0.300000X-0.237500X0.300000X0.237500X-0.300000X0.237500X0*%
%ADD16RoundRect,0.237500X0.300000X0.237500X-0.300000X0.237500X-0.300000X-0.237500X0.300000X-0.237500X0*%
G04 APERTURE END LIST*
D10*
X65562500Y-48250000D03*
X63737500Y-48250000D03*
X67500000Y-39750000D03*
X65675000Y-39750000D03*
X67500000Y-41756250D03*
X65675000Y-41756250D03*
D11*
X58800000Y-23920000D03*
X58800000Y-26460000D03*
X58800000Y-29000000D03*
X68800000Y-29000000D03*
X68800000Y-26460000D03*
X68800000Y-23920000D03*
D10*
X40612500Y-48250000D03*
X38787500Y-48250000D03*
D12*
X26750000Y-46612500D03*
X26750000Y-44887500D03*
X51250000Y-46662500D03*
X51250000Y-44937500D03*
X53200000Y-46662500D03*
X53200000Y-44937500D03*
D13*
X40250000Y-43925000D03*
X38350000Y-43925000D03*
X39300000Y-45800000D03*
D12*
X28600000Y-46600000D03*
X28600000Y-44875000D03*
D10*
X42500000Y-41725000D03*
X40675000Y-41725000D03*
X42500000Y-39725000D03*
X40675000Y-39725000D03*
D14*
X65334360Y-51700000D03*
X63284360Y-51700000D03*
D15*
X70887500Y-28960000D03*
X72612500Y-28960000D03*
D13*
X64975000Y-43901250D03*
X63075000Y-43901250D03*
X64025000Y-45776250D03*
D16*
X56675000Y-29060000D03*
X54950000Y-29060000D03*
D15*
X70837500Y-26460000D03*
X72562500Y-26460000D03*
D14*
X40528750Y-51653140D03*
X38478750Y-51653140D03*
M02*
