G04 #@! TF.GenerationSoftware,KiCad,Pcbnew,8.0.0-rc1*
G04 #@! TF.CreationDate,2025-07-19T19:19:54+02:00*
G04 #@! TF.ProjectId,Pneumatic control unit system,506e6575-6d61-4746-9963-20636f6e7472,rev?*
G04 #@! TF.SameCoordinates,Original*
G04 #@! TF.FileFunction,Soldermask,Top*
G04 #@! TF.FilePolarity,Negative*
%FSLAX46Y46*%
G04 Gerber Fmt 4.6, Leading zero omitted, Abs format (unit mm)*
G04 Created by KiCad (PCBNEW 8.0.0-rc1) date 2025-07-19 19:19:54*
%MOMM*%
%LPD*%
G01*
G04 APERTURE LIST*
G04 Aperture macros list*
%AMRoundRect*
0 Rectangle with rounded corners*
0 $1 Rounding radius*
0 $2 $3 $4 $5 $6 $7 $8 $9 X,Y pos of 4 corners*
0 Add a 4 corners polygon primitive as box body*
4,1,4,$2,$3,$4,$5,$6,$7,$8,$9,$2,$3,0*
0 Add four circle primitives for the rounded corners*
1,1,$1+$1,$2,$3*
1,1,$1+$1,$4,$5*
1,1,$1+$1,$6,$7*
1,1,$1+$1,$8,$9*
0 Add four rect primitives between the rounded corners*
20,1,$1+$1,$2,$3,$4,$5,0*
20,1,$1+$1,$4,$5,$6,$7,0*
20,1,$1+$1,$6,$7,$8,$9,0*
20,1,$1+$1,$8,$9,$2,$3,0*%
G04 Aperture macros list end*
%ADD10RoundRect,0.237500X0.250000X0.237500X-0.250000X0.237500X-0.250000X-0.237500X0.250000X-0.237500X0*%
%ADD11R,1.600000X1.600000*%
%ADD12O,1.600000X1.600000*%
%ADD13R,2.200000X2.200000*%
%ADD14O,2.200000X2.200000*%
%ADD15C,2.000000*%
%ADD16C,1.000000*%
%ADD17RoundRect,0.275000X-0.525000X-0.275000X0.525000X-0.275000X0.525000X0.275000X-0.525000X0.275000X0*%
%ADD18RoundRect,0.237500X0.237500X-0.300000X0.237500X0.300000X-0.237500X0.300000X-0.237500X-0.300000X0*%
%ADD19C,3.200000*%
%ADD20RoundRect,0.250000X0.600000X-0.600000X0.600000X0.600000X-0.600000X0.600000X-0.600000X-0.600000X0*%
%ADD21C,1.700000*%
%ADD22C,1.100000*%
%ADD23C,2.200000*%
%ADD24RoundRect,0.150000X-0.150000X0.587500X-0.150000X-0.587500X0.150000X-0.587500X0.150000X0.587500X0*%
%ADD25RoundRect,0.250000X0.325000X0.450000X-0.325000X0.450000X-0.325000X-0.450000X0.325000X-0.450000X0*%
%ADD26RoundRect,0.237500X-0.300000X-0.237500X0.300000X-0.237500X0.300000X0.237500X-0.300000X0.237500X0*%
%ADD27RoundRect,0.237500X0.300000X0.237500X-0.300000X0.237500X-0.300000X-0.237500X0.300000X-0.237500X0*%
%ADD28C,1.600000*%
G04 APERTURE END LIST*
D10*
X65562500Y-48250000D03*
X63737500Y-48250000D03*
D11*
X44250000Y-33250000D03*
D12*
X36630000Y-33250000D03*
D10*
X67500000Y-39750000D03*
X65675000Y-39750000D03*
D13*
X71250000Y-36750000D03*
D14*
X61090000Y-36750000D03*
D15*
X43750000Y-51500000D03*
X43750000Y-45000000D03*
X48250000Y-51500000D03*
X48250000Y-45000000D03*
D10*
X67500000Y-41756250D03*
X65675000Y-41756250D03*
D15*
X68500000Y-51500000D03*
X68500000Y-45000000D03*
X73000000Y-51500000D03*
X73000000Y-45000000D03*
X23700000Y-41200000D03*
D13*
X46000000Y-36750000D03*
D14*
X35840000Y-36750000D03*
D16*
X60600000Y-29660000D03*
X67000000Y-23260000D03*
D17*
X58800000Y-23920000D03*
X58800000Y-26460000D03*
X58800000Y-29000000D03*
X68800000Y-29000000D03*
X68800000Y-26460000D03*
X68800000Y-23920000D03*
D10*
X40612500Y-48250000D03*
X38787500Y-48250000D03*
D18*
X26750000Y-46612500D03*
X26750000Y-44887500D03*
X51250000Y-46662500D03*
X51250000Y-44937500D03*
D19*
X24000000Y-50500000D03*
D18*
X53200000Y-46662500D03*
X53200000Y-44937500D03*
D20*
X37840000Y-27750000D03*
D21*
X37840000Y-25210000D03*
X40380000Y-27750000D03*
X40380000Y-25210000D03*
X42920000Y-27750000D03*
X42920000Y-25210000D03*
X45460000Y-27750000D03*
X45460000Y-25210000D03*
X48000000Y-27750000D03*
X48000000Y-25210000D03*
D19*
X79500000Y-50500000D03*
D22*
X31600000Y-52186860D03*
X34140000Y-52186860D03*
D13*
X31600000Y-49646860D03*
D23*
X34140000Y-49646860D03*
D24*
X40250000Y-43925000D03*
X38350000Y-43925000D03*
X39300000Y-45800000D03*
D18*
X28600000Y-46600000D03*
X28600000Y-44875000D03*
D10*
X42500000Y-41725000D03*
X40675000Y-41725000D03*
X42500000Y-39725000D03*
X40675000Y-39725000D03*
D25*
X65334360Y-51700000D03*
X63284360Y-51700000D03*
D26*
X70887500Y-28960000D03*
X72612500Y-28960000D03*
D11*
X71200000Y-33300000D03*
D12*
X63580000Y-33300000D03*
D24*
X64975000Y-43901250D03*
X63075000Y-43901250D03*
X64025000Y-45776250D03*
D19*
X24000000Y-25000000D03*
D27*
X56675000Y-29060000D03*
X54950000Y-29060000D03*
D26*
X70837500Y-26460000D03*
X72562500Y-26460000D03*
D25*
X40528750Y-51653140D03*
X38478750Y-51653140D03*
D19*
X79500000Y-25000000D03*
D22*
X56300610Y-52186860D03*
X58840610Y-52186860D03*
D13*
X56300610Y-49646860D03*
D23*
X58840610Y-49646860D03*
D11*
X32000000Y-40250000D03*
D28*
X29500000Y-40250000D03*
D11*
X53000000Y-35250000D03*
D28*
X50500000Y-35250000D03*
D11*
X57932380Y-40950000D03*
D28*
X55432380Y-40950000D03*
D11*
X27250000Y-34100000D03*
D28*
X24750000Y-34100000D03*
M02*
